<svg width="57" height="60" viewBox="0 0 57 60" fill="none" xmlns="http://www.w3.org/2000/svg">
<path d="M0.0825195 0H50.5339C53.8476 0 56.5339 2.68629 56.5339 6V54C56.5339 57.3137 53.8476 60 50.5339 60H0.0825195V0Z" fill="#F5C34B"/>
<path d="M25.0508 19.9316C20.3854 19.9316 16.585 23.971 16.585 28.9297C16.585 33.8884 20.3854 37.9356 25.0508 37.9356C27.0436 37.9356 28.8763 37.1933 30.3248 35.961L33.8512 39.707C34.0291 39.8883 34.2668 39.9884 34.5133 39.9857C34.7598 39.983 34.9955 39.8779 35.17 39.6927C35.3444 39.5076 35.4437 39.2572 35.4465 38.9953C35.4494 38.7333 35.3556 38.4805 35.1853 38.2911L31.6589 34.5431C32.8194 33.0012 33.5186 31.0502 33.5186 28.9297C33.5186 23.971 29.7163 19.9316 25.0508 19.9316ZM25.0508 21.9317C28.6993 21.9317 31.635 25.0519 31.635 28.9297C31.635 32.8075 28.6993 35.9356 25.0508 35.9356C21.4023 35.9356 18.4667 32.8075 18.4667 28.9297C18.4667 25.0519 21.4023 21.9317 25.0508 21.9317Z" fill="#443297"/>
</svg>
