<svg width="127" height="77" viewBox="0 0 127 77" fill="none" xmlns="http://www.w3.org/2000/svg">
<path d="M57.378 35.244C57.586 35.608 57.8027 35.9287 58.028 36.206C58.262 36.4833 58.522 36.7 58.808 36.856C59.094 37.012 59.419 37.09 59.783 37.09C60.2683 37.09 60.6583 36.9557 60.953 36.687C61.2477 36.4183 61.395 36.076 61.395 35.66C61.395 35.2527 61.2997 34.9277 61.109 34.685C60.9183 34.4423 60.667 34.2473 60.355 34.1C60.0517 33.944 59.7267 33.8053 59.38 33.684C59.1547 33.606 58.9033 33.5063 58.626 33.385C58.3487 33.255 58.0843 33.0947 57.833 32.904C57.5817 32.7047 57.3737 32.462 57.209 32.176C57.053 31.89 56.975 31.539 56.975 31.123C56.975 30.6723 57.0877 30.2693 57.313 29.914C57.5383 29.5587 57.8503 29.2813 58.249 29.082C58.6477 28.874 59.1027 28.77 59.614 28.77C60.108 28.77 60.537 28.8653 60.901 29.056C61.2737 29.238 61.59 29.4763 61.85 29.771C62.11 30.057 62.3137 30.3603 62.461 30.681L61.512 31.227C61.3993 31.0017 61.2563 30.7807 61.083 30.564C60.9097 30.3473 60.6973 30.1697 60.446 30.031C60.2033 29.8923 59.9043 29.823 59.549 29.823C59.055 29.823 58.6953 29.9443 58.47 30.187C58.2447 30.421 58.132 30.6853 58.132 30.98C58.132 31.2313 58.197 31.4653 58.327 31.682C58.457 31.89 58.6737 32.0893 58.977 32.28C59.289 32.462 59.7093 32.644 60.238 32.826C60.4807 32.9127 60.7363 33.0253 61.005 33.164C61.2737 33.3027 61.5207 33.4803 61.746 33.697C61.98 33.905 62.1707 34.1607 62.318 34.464C62.4653 34.7587 62.539 35.114 62.539 35.53C62.539 35.9287 62.461 36.2883 62.305 36.609C62.1577 36.9297 61.9497 37.2027 61.681 37.428C61.421 37.6533 61.122 37.8267 60.784 37.948C60.4547 38.0693 60.108 38.13 59.744 38.13C59.25 38.13 58.7907 38.026 58.366 37.818C57.95 37.6013 57.5817 37.3197 57.261 36.973C56.949 36.6177 56.6933 36.2407 56.494 35.842L57.378 35.244ZM64.0971 29.55C64.0971 29.3507 64.1664 29.1817 64.3051 29.043C64.4524 28.9043 64.6214 28.835 64.8121 28.835C65.0114 28.835 65.1804 28.9043 65.3191 29.043C65.4577 29.1817 65.5271 29.3507 65.5271 29.55C65.5271 29.7407 65.4577 29.9097 65.3191 30.057C65.1804 30.1957 65.0114 30.265 64.8121 30.265C64.6214 30.265 64.4524 30.1957 64.3051 30.057C64.1664 29.9097 64.0971 29.7407 64.0971 29.55ZM64.2921 32.02H65.3321V38H64.2921V32.02ZM67.071 38.39H68.124C68.124 38.676 68.202 38.9403 68.358 39.183C68.514 39.4343 68.735 39.6337 69.021 39.781C69.307 39.937 69.645 40.015 70.035 40.015C70.3384 40.015 70.6374 39.9413 70.932 39.794C71.2267 39.6467 71.4694 39.4127 71.66 39.092C71.8594 38.78 71.959 38.3727 71.959 37.87V32.02H72.999V37.87C72.999 38.5547 72.856 39.1267 72.57 39.586C72.284 40.054 71.9157 40.405 71.465 40.639C71.0144 40.873 70.5377 40.99 70.035 40.99C69.4544 40.99 68.9387 40.8817 68.488 40.665C68.046 40.4483 67.6994 40.1407 67.448 39.742C67.1967 39.352 67.071 38.9013 67.071 38.39ZM66.954 35.01C66.954 34.36 67.0884 33.8053 67.357 33.346C67.6257 32.878 67.9854 32.5183 68.436 32.267C68.8867 32.0157 69.3807 31.89 69.918 31.89C70.4207 31.89 70.8584 32.0157 71.231 32.267C71.6037 32.5183 71.894 32.878 72.102 33.346C72.3187 33.8053 72.427 34.36 72.427 35.01C72.427 35.6513 72.3187 36.206 72.102 36.674C71.894 37.142 71.6037 37.5017 71.231 37.753C70.8584 38.0043 70.4207 38.13 69.918 38.13C69.3807 38.13 68.8867 38.0043 68.436 37.753C67.9854 37.5017 67.6257 37.142 67.357 36.674C67.0884 36.206 66.954 35.6513 66.954 35.01ZM68.007 35.01C68.007 35.4693 68.098 35.8593 68.28 36.18C68.4707 36.5007 68.722 36.7433 69.034 36.908C69.346 37.0727 69.684 37.155 70.048 37.155C70.3514 37.155 70.6504 37.0727 70.945 36.908C71.2397 36.7433 71.4824 36.5007 71.673 36.18C71.8637 35.8593 71.959 35.4693 71.959 35.01C71.959 34.6633 71.9027 34.36 71.79 34.1C71.6774 33.8313 71.5257 33.606 71.335 33.424C71.153 33.242 70.9494 33.1033 70.724 33.008C70.4987 32.9127 70.2734 32.865 70.048 32.865C69.684 32.865 69.346 32.9473 69.034 33.112C68.722 33.2767 68.4707 33.5193 68.28 33.84C68.098 34.1607 68.007 34.5507 68.007 35.01ZM78.7231 34.36C78.7231 33.866 78.6148 33.4933 78.3981 33.242C78.1814 32.9907 77.8651 32.865 77.4491 32.865C77.1458 32.865 76.8771 32.93 76.6431 33.06C76.4178 33.1813 76.2401 33.3547 76.1101 33.58C75.9888 33.8053 75.9281 34.0653 75.9281 34.36V38H74.8881V32.02H75.9281V32.956C76.1274 32.592 76.3744 32.3233 76.6691 32.15C76.9724 31.9767 77.3191 31.89 77.7091 31.89C78.3418 31.89 78.8401 32.1023 79.2041 32.527C79.5768 32.943 79.7631 33.5107 79.7631 34.23V38H78.7231V34.36ZM85.6806 28.9H86.7856V38H85.6806V28.9ZM92.6371 34.36C92.6371 33.866 92.5288 33.4933 92.3121 33.242C92.0955 32.9907 91.7791 32.865 91.3631 32.865C91.0598 32.865 90.7911 32.93 90.5571 33.06C90.3318 33.1813 90.1541 33.3547 90.0241 33.58C89.9028 33.8053 89.8421 34.0653 89.8421 34.36V38H88.8021V32.02H89.8421V32.956C90.0415 32.592 90.2885 32.3233 90.5831 32.15C90.8865 31.9767 91.2331 31.89 91.6231 31.89C92.2558 31.89 92.7541 32.1023 93.1181 32.527C93.4908 32.943 93.6771 33.5107 93.6771 34.23V38H92.6371V34.36ZM58.592 57.12L58.944 55.52H64.144L64.512 57.12H58.592ZM61.52 51.968L59.76 56.08L59.728 56.496L58.176 60H56.048L61.52 48.176L66.992 60H64.864L63.344 56.592L63.296 56.128L61.52 51.968ZM69.3029 56.32C69.3029 56.7893 69.4042 57.2 69.6069 57.552C69.8095 57.8933 70.0815 58.1653 70.4229 58.368C70.7749 58.5707 71.1642 58.672 71.5909 58.672C71.9429 58.672 72.2789 58.6187 72.5989 58.512C72.9189 58.4053 73.2015 58.256 73.4469 58.064C73.6922 57.872 73.8735 57.6587 73.9909 57.424V59.328C73.7349 59.584 73.3882 59.7867 72.9509 59.936C72.5135 60.0853 72.0335 60.16 71.5109 60.16C70.7535 60.16 70.0709 60 69.4629 59.68C68.8655 59.3493 68.3909 58.896 68.0389 58.32C67.6975 57.7333 67.5269 57.0667 67.5269 56.32C67.5269 55.5627 67.6975 54.896 68.0389 54.32C68.3909 53.744 68.8655 53.296 69.4629 52.976C70.0709 52.6453 70.7535 52.48 71.5109 52.48C72.0335 52.48 72.5135 52.5547 72.9509 52.704C73.3882 52.8533 73.7349 53.056 73.9909 53.312V55.216C73.8735 54.9707 73.6869 54.7573 73.4309 54.576C73.1855 54.384 72.9029 54.2347 72.5829 54.128C72.2629 54.0213 71.9322 53.968 71.5909 53.968C71.1642 53.968 70.7749 54.0693 70.4229 54.272C70.0815 54.4747 69.8095 54.752 69.6069 55.104C69.4042 55.456 69.3029 55.8613 69.3029 56.32ZM77.0529 56.32C77.0529 56.7893 77.1542 57.2 77.3569 57.552C77.5595 57.8933 77.8315 58.1653 78.1729 58.368C78.5249 58.5707 78.9142 58.672 79.3409 58.672C79.6929 58.672 80.0289 58.6187 80.3489 58.512C80.6689 58.4053 80.9515 58.256 81.1969 58.064C81.4422 57.872 81.6235 57.6587 81.7409 57.424V59.328C81.4849 59.584 81.1382 59.7867 80.7009 59.936C80.2635 60.0853 79.7835 60.16 79.2609 60.16C78.5035 60.16 77.8209 60 77.2129 59.68C76.6155 59.3493 76.1409 58.896 75.7889 58.32C75.4475 57.7333 75.2769 57.0667 75.2769 56.32C75.2769 55.5627 75.4475 54.896 75.7889 54.32C76.1409 53.744 76.6155 53.296 77.2129 52.976C77.8209 52.6453 78.5035 52.48 79.2609 52.48C79.7835 52.48 80.2635 52.5547 80.7009 52.704C81.1382 52.8533 81.4849 53.056 81.7409 53.312V55.216C81.6235 54.9707 81.4369 54.7573 81.1809 54.576C80.9355 54.384 80.6529 54.2347 80.3329 54.128C80.0129 54.0213 79.6822 53.968 79.3409 53.968C78.9142 53.968 78.5249 54.0693 78.1729 54.272C77.8315 54.4747 77.5595 54.752 77.3569 55.104C77.1542 55.456 77.0529 55.8613 77.0529 56.32ZM83.0909 56.32C83.0909 55.5627 83.2615 54.896 83.6029 54.32C83.9549 53.744 84.4295 53.296 85.0269 52.976C85.6242 52.6453 86.3015 52.48 87.0589 52.48C87.8162 52.48 88.4882 52.6453 89.0749 52.976C89.6722 53.296 90.1469 53.744 90.4989 54.32C90.8509 54.896 91.0269 55.5627 91.0269 56.32C91.0269 57.0667 90.8509 57.7333 90.4989 58.32C90.1469 58.896 89.6722 59.3493 89.0749 59.68C88.4882 60 87.8162 60.16 87.0589 60.16C86.3015 60.16 85.6242 60 85.0269 59.68C84.4295 59.3493 83.9549 58.896 83.6029 58.32C83.2615 57.7333 83.0909 57.0667 83.0909 56.32ZM84.8669 56.32C84.8669 56.7787 84.9629 57.184 85.1549 57.536C85.3469 57.8773 85.6082 58.1493 85.9389 58.352C86.2695 58.544 86.6429 58.64 87.0589 58.64C87.4642 58.64 87.8322 58.544 88.1629 58.352C88.5042 58.1493 88.7709 57.8773 88.9629 57.536C89.1549 57.184 89.2509 56.7787 89.2509 56.32C89.2509 55.8613 89.1549 55.456 88.9629 55.104C88.7709 54.752 88.5042 54.48 88.1629 54.288C87.8322 54.096 87.4642 54 87.0589 54C86.6429 54 86.2695 54.096 85.9389 54.288C85.6082 54.48 85.3469 54.752 85.1549 55.104C84.9629 55.456 84.8669 55.8613 84.8669 56.32ZM94.4425 57.12C94.4425 57.6427 94.5545 58.048 94.7785 58.336C95.0025 58.624 95.3438 58.768 95.8025 58.768C96.1332 58.768 96.4212 58.704 96.6665 58.576C96.9118 58.4373 97.1038 58.2453 97.2425 58C97.3812 57.744 97.4505 57.4507 97.4505 57.12V52.64H99.1785V60H97.4505V58.864C97.2158 59.2907 96.9118 59.616 96.5385 59.84C96.1758 60.0533 95.7385 60.16 95.2265 60.16C94.4052 60.16 93.7705 59.904 93.3225 59.392C92.8852 58.88 92.6665 58.1867 92.6665 57.312V52.64H94.4425V57.12ZM106.121 55.52C106.121 54.976 106.009 54.5653 105.785 54.288C105.561 54.0107 105.215 53.872 104.745 53.872C104.425 53.872 104.143 53.9413 103.897 54.08C103.652 54.208 103.46 54.4 103.321 54.656C103.183 54.9013 103.113 55.1893 103.113 55.52V60H101.385V52.64H103.113V53.776C103.348 53.3387 103.647 53.0133 104.009 52.8C104.383 52.5867 104.825 52.48 105.337 52.48C106.169 52.48 106.804 52.736 107.241 53.248C107.679 53.7493 107.897 54.4427 107.897 55.328V60H106.121V55.52ZM109.08 52.64H113.256V54.16H109.08V52.64ZM110.312 50.08H112.024V60H110.312V50.08Z" fill="white"/>
<rect x="0.5" y="0.5" width="47.7805" height="76" rx="5.5" stroke="white" stroke-opacity="0.1"/>
</svg>
