<svg width="133" height="50" viewBox="0 0 133 50" fill="none" xmlns="http://www.w3.org/2000/svg">
<path d="M71.7051 17.244L70.8211 17.842C71.0205 18.2407 71.2761 18.6177 71.5881 18.973C71.9088 19.3197 72.2771 19.6013 72.6931 19.818C73.1178 20.026 73.5771 20.13 74.0711 20.13C74.4351 20.13 74.7818 20.0693 75.1111 19.948C75.4491 19.8267 75.7481 19.6533 76.0081 19.428C76.2768 19.2027 76.4848 18.9297 76.6321 18.609C76.7881 18.2883 76.8661 17.9287 76.8661 17.53C76.8661 17.114 76.7925 16.7587 76.6451 16.464C76.4978 16.1607 76.3071 15.905 76.0731 15.697C75.8478 15.4803 75.6008 15.3027 75.3321 15.164C75.0635 15.0253 74.8078 14.9127 74.5651 14.826C74.0365 14.644 73.6161 14.462 73.3041 14.28C73.0008 14.0893 72.7841 13.89 72.6541 13.682C72.5241 13.4653 72.4591 13.2313 72.4591 12.98C72.4591 12.6853 72.5718 12.421 72.7971 12.187C73.0225 11.9443 73.3821 11.823 73.8761 11.823C74.2315 11.823 74.5305 11.8923 74.7731 12.031C75.0245 12.1697 75.2368 12.3473 75.4101 12.564C75.5835 12.7807 75.7265 13.0017 75.8391 13.227L76.7881 12.681C76.6408 12.3603 76.4371 12.057 76.1771 11.771C75.9171 11.4763 75.6008 11.238 75.2281 11.056C74.8641 10.8653 74.4351 10.77 73.9411 10.77C73.4298 10.77 72.9748 10.874 72.5761 11.082C72.1775 11.2813 71.8655 11.5587 71.6401 11.914C71.4148 12.2693 71.3021 12.6723 71.3021 13.123C71.3021 13.539 71.3801 13.89 71.5361 14.176C71.7008 14.462 71.9088 14.7047 72.1601 14.904C72.4115 15.0947 72.6758 15.255 72.9531 15.385C73.2305 15.5063 73.4818 15.606 73.7071 15.684C74.0538 15.8053 74.3788 15.944 74.6821 16.1C74.9941 16.2473 75.2455 16.4423 75.4361 16.685C75.6268 16.9277 75.7221 17.2527 75.7221 17.66C75.7221 18.076 75.5748 18.4183 75.2801 18.687C74.9855 18.9557 74.5955 19.09 74.1101 19.09C73.7461 19.09 73.4211 19.012 73.1351 18.856C72.8491 18.7 72.5891 18.4833 72.3551 18.206C72.1298 17.9287 71.9131 17.608 71.7051 17.244ZM78.4242 11.55C78.4242 11.7407 78.4936 11.9097 78.6322 12.057C78.7796 12.1957 78.9486 12.265 79.1392 12.265C79.3386 12.265 79.5076 12.1957 79.6462 12.057C79.7849 11.9097 79.8542 11.7407 79.8542 11.55C79.8542 11.3507 79.7849 11.1817 79.6462 11.043C79.5076 10.9043 79.3386 10.835 79.1392 10.835C78.9486 10.835 78.7796 10.9043 78.6322 11.043C78.4936 11.1817 78.4242 11.3507 78.4242 11.55ZM78.6192 14.02V20H79.6592V14.02H78.6192ZM81.3982 20.39C81.3982 20.9013 81.5238 21.352 81.7752 21.742C82.0265 22.1407 82.3732 22.4483 82.8152 22.665C83.2658 22.8817 83.7815 22.99 84.3622 22.99C84.8648 22.99 85.3415 22.873 85.7922 22.639C86.2428 22.405 86.6112 22.054 86.8972 21.586C87.1832 21.1267 87.3262 20.5547 87.3262 19.87V14.02H86.2862V19.87C86.2862 20.3727 86.1865 20.78 85.9872 21.092C85.7965 21.4127 85.5538 21.6467 85.2592 21.794C84.9645 21.9413 84.6655 22.015 84.3622 22.015C83.9722 22.015 83.6342 21.937 83.3482 21.781C83.0622 21.6337 82.8412 21.4343 82.6852 21.183C82.5292 20.9403 82.4512 20.676 82.4512 20.39H81.3982ZM81.2812 17.01C81.2812 17.6513 81.4155 18.206 81.6842 18.674C81.9528 19.142 82.3125 19.5017 82.7632 19.753C83.2138 20.0043 83.7078 20.13 84.2452 20.13C84.7478 20.13 85.1855 20.0043 85.5582 19.753C85.9308 19.5017 86.2212 19.142 86.4292 18.674C86.6458 18.206 86.7542 17.6513 86.7542 17.01C86.7542 16.36 86.6458 15.8053 86.4292 15.346C86.2212 14.878 85.9308 14.5183 85.5582 14.267C85.1855 14.0157 84.7478 13.89 84.2452 13.89C83.7078 13.89 83.2138 14.0157 82.7632 14.267C82.3125 14.5183 81.9528 14.878 81.6842 15.346C81.4155 15.8053 81.2812 16.36 81.2812 17.01ZM82.3342 17.01C82.3342 16.5507 82.4252 16.1607 82.6072 15.84C82.7978 15.5193 83.0492 15.2767 83.3612 15.112C83.6732 14.9473 84.0112 14.865 84.3752 14.865C84.6005 14.865 84.8258 14.9127 85.0512 15.008C85.2765 15.1033 85.4802 15.242 85.6622 15.424C85.8528 15.606 86.0045 15.8313 86.1172 16.1C86.2298 16.36 86.2862 16.6633 86.2862 17.01C86.2862 17.4693 86.1908 17.8593 86.0002 18.18C85.8095 18.5007 85.5668 18.7433 85.2722 18.908C84.9775 19.0727 84.6785 19.155 84.3752 19.155C84.0112 19.155 83.6732 19.0727 83.3612 18.908C83.0492 18.7433 82.7978 18.5007 82.6072 18.18C82.4252 17.8593 82.3342 17.4693 82.3342 17.01ZM93.0502 16.36V20H94.0902V16.23C94.0902 15.5107 93.9039 14.943 93.5312 14.527C93.1672 14.1023 92.6689 13.89 92.0362 13.89C91.6462 13.89 91.2996 13.9767 90.9962 14.15C90.7016 14.3233 90.4546 14.592 90.2552 14.956V14.02H89.2152V20H90.2552V16.36C90.2552 16.0653 90.3159 15.8053 90.4372 15.58C90.5672 15.3547 90.7449 15.1813 90.9702 15.06C91.2042 14.93 91.4729 14.865 91.7762 14.865C92.1922 14.865 92.5086 14.9907 92.7252 15.242C92.9419 15.4933 93.0502 15.866 93.0502 16.36ZM100.008 10.9V20H101.113V10.9H100.008ZM106.964 16.36V20H108.004V16.23C108.004 15.5107 107.818 14.943 107.445 14.527C107.081 14.1023 106.583 13.89 105.95 13.89C105.56 13.89 105.214 13.9767 104.91 14.15C104.616 14.3233 104.369 14.592 104.169 14.956V14.02H103.129V20H104.169V16.36C104.169 16.0653 104.23 15.8053 104.351 15.58C104.481 15.3547 104.659 15.1813 104.884 15.06C105.118 14.93 105.387 14.865 105.69 14.865C106.106 14.865 106.423 14.9907 106.639 15.242C106.856 15.4933 106.964 15.866 106.964 16.36ZM72.9191 39.12H78.8391L78.4711 37.52H73.2711L72.9191 39.12ZM75.8471 33.968L77.6231 38.128L77.6711 38.592L79.1911 42H81.3191L75.8471 30.176L70.3751 42H72.5031L74.0551 38.496L74.0871 38.08L75.8471 33.968ZM83.63 38.32C83.63 37.8613 83.7314 37.456 83.934 37.104C84.1367 36.752 84.4087 36.4747 84.75 36.272C85.102 36.0693 85.4914 35.968 85.918 35.968C86.2594 35.968 86.59 36.0213 86.91 36.128C87.23 36.2347 87.5127 36.384 87.758 36.576C88.014 36.7573 88.2007 36.9707 88.318 37.216V35.312C88.062 35.056 87.7154 34.8533 87.278 34.704C86.8407 34.5547 86.3607 34.48 85.838 34.48C85.0807 34.48 84.398 34.6453 83.79 34.976C83.1927 35.296 82.718 35.744 82.366 36.32C82.0247 36.896 81.854 37.5627 81.854 38.32C81.854 39.0667 82.0247 39.7333 82.366 40.32C82.718 40.896 83.1927 41.3493 83.79 41.68C84.398 42 85.0807 42.16 85.838 42.16C86.3607 42.16 86.8407 42.0853 87.278 41.936C87.7154 41.7867 88.062 41.584 88.318 41.328V39.424C88.2007 39.6587 88.0194 39.872 87.774 40.064C87.5287 40.256 87.246 40.4053 86.926 40.512C86.606 40.6187 86.27 40.672 85.918 40.672C85.4914 40.672 85.102 40.5707 84.75 40.368C84.4087 40.1653 84.1367 39.8933 83.934 39.552C83.7314 39.2 83.63 38.7893 83.63 38.32ZM91.38 38.32C91.38 37.8613 91.4814 37.456 91.684 37.104C91.8867 36.752 92.1587 36.4747 92.5 36.272C92.852 36.0693 93.2414 35.968 93.668 35.968C94.0094 35.968 94.34 36.0213 94.66 36.128C94.98 36.2347 95.2627 36.384 95.508 36.576C95.764 36.7573 95.9507 36.9707 96.068 37.216V35.312C95.812 35.056 95.4654 34.8533 95.028 34.704C94.5907 34.5547 94.1107 34.48 93.588 34.48C92.8307 34.48 92.148 34.6453 91.54 34.976C90.9427 35.296 90.468 35.744 90.116 36.32C89.7747 36.896 89.604 37.5627 89.604 38.32C89.604 39.0667 89.7747 39.7333 90.116 40.32C90.468 40.896 90.9427 41.3493 91.54 41.68C92.148 42 92.8307 42.16 93.588 42.16C94.1107 42.16 94.5907 42.0853 95.028 41.936C95.4654 41.7867 95.812 41.584 96.068 41.328V39.424C95.9507 39.6587 95.7694 39.872 95.524 40.064C95.2787 40.256 94.996 40.4053 94.676 40.512C94.356 40.6187 94.02 40.672 93.668 40.672C93.2414 40.672 92.852 40.5707 92.5 40.368C92.1587 40.1653 91.8867 39.8933 91.684 39.552C91.4814 39.2 91.38 38.7893 91.38 38.32ZM97.418 38.32C97.418 39.0667 97.5887 39.7333 97.93 40.32C98.282 40.896 98.7567 41.3493 99.354 41.68C99.9514 42 100.629 42.16 101.386 42.16C102.143 42.16 102.815 42 103.402 41.68C103.999 41.3493 104.474 40.896 104.826 40.32C105.178 39.7333 105.354 39.0667 105.354 38.32C105.354 37.5627 105.178 36.896 104.826 36.32C104.474 35.744 103.999 35.296 103.402 34.976C102.815 34.6453 102.143 34.48 101.386 34.48C100.629 34.48 99.9514 34.6453 99.354 34.976C98.7567 35.296 98.282 35.744 97.93 36.32C97.5887 36.896 97.418 37.5627 97.418 38.32ZM99.194 38.32C99.194 37.8613 99.29 37.456 99.482 37.104C99.674 36.752 99.9354 36.48 100.266 36.288C100.597 36.096 100.97 36 101.386 36C101.791 36 102.159 36.096 102.49 36.288C102.831 36.48 103.098 36.752 103.29 37.104C103.482 37.456 103.578 37.8613 103.578 38.32C103.578 38.7787 103.482 39.184 103.29 39.536C103.098 39.8773 102.831 40.1493 102.49 40.352C102.159 40.544 101.791 40.64 101.386 40.64C100.97 40.64 100.597 40.544 100.266 40.352C99.9354 40.1493 99.674 39.8773 99.482 39.536C99.29 39.184 99.194 38.7787 99.194 38.32ZM108.77 39.12V34.64H106.994V39.312C106.994 40.1867 107.212 40.88 107.65 41.392C108.098 41.904 108.732 42.16 109.554 42.16C110.066 42.16 110.503 42.0533 110.866 41.84C111.239 41.616 111.543 41.2907 111.778 40.864V42H113.506V34.64H111.778V39.12C111.778 39.4507 111.708 39.744 111.57 40C111.431 40.2453 111.239 40.4373 110.994 40.576C110.748 40.704 110.46 40.768 110.13 40.768C109.671 40.768 109.33 40.624 109.106 40.336C108.882 40.048 108.77 39.6427 108.77 39.12ZM120.448 37.52V42H122.224V37.328C122.224 36.4427 122.006 35.7493 121.568 35.248C121.131 34.736 120.496 34.48 119.664 34.48C119.152 34.48 118.71 34.5867 118.336 34.8C117.974 35.0133 117.675 35.3387 117.44 35.776V34.64H115.712V42H117.44V37.52C117.44 37.1893 117.51 36.9013 117.648 36.656C117.787 36.4 117.979 36.208 118.224 36.08C118.47 35.9413 118.752 35.872 119.072 35.872C119.542 35.872 119.888 36.0107 120.112 36.288C120.336 36.5653 120.448 36.976 120.448 37.52ZM123.407 34.64V36.16H127.583V34.64H123.407ZM124.639 32.08V42H126.351V32.08H124.639Z" fill="white"/>
<rect x="1.39746" y="0.5" width="52.4075" height="49" rx="5.5" stroke="white" stroke-opacity="0.1"/>
<path d="M27.6 24.1673C28.4802 24.1673 29.3407 23.923 30.0727 23.4651C30.8045 23.0073 31.375 22.3565 31.7118 21.5952C32.0487 20.8338 32.1369 19.996 31.9651 19.1878C31.7934 18.3795 31.3695 17.6371 30.747 17.0544C30.1247 16.4717 29.3316 16.0748 28.4683 15.914C27.6049 15.7533 26.71 15.8358 25.8968 16.1511C25.0836 16.4665 24.3885 17.0006 23.8994 17.6858C23.4104 18.371 23.1494 19.1766 23.1494 20.0006C23.1508 21.1053 23.6201 22.1643 24.4545 22.9455C25.2888 23.7266 26.42 24.166 27.6 24.1673ZM27.6 17.5006C28.1281 17.5006 28.6445 17.6473 29.0836 17.922C29.5227 18.1967 29.865 18.5871 30.0671 19.0439C30.2692 19.5008 30.3221 20.0034 30.2191 20.4884C30.116 20.9733 29.8617 21.4188 29.4882 21.7684C29.1148 22.118 28.6389 22.3561 28.121 22.4526C27.6029 22.5491 27.066 22.4996 26.578 22.3103C26.0902 22.1211 25.6731 21.8007 25.3797 21.3896C25.0862 20.9785 24.9296 20.4951 24.9296 20.0006C24.9296 19.3376 25.211 18.7017 25.7118 18.2329C26.2126 17.764 26.8918 17.5006 27.6 17.5006ZM19.5889 33.334V30.0006C19.5903 28.896 20.0596 27.837 20.894 27.0558C21.7283 26.2747 22.8596 25.8353 24.0395 25.834H31.1605C32.3404 25.8353 33.4716 26.2747 34.306 27.0558C35.1403 27.837 35.6097 28.896 35.6111 30.0006V33.334C35.6111 33.555 35.5173 33.767 35.3504 33.9232C35.1835 34.0795 34.957 34.1673 34.721 34.1673C34.4849 34.1673 34.2585 34.0795 34.0916 33.9232C33.9247 33.767 33.8309 33.555 33.8309 33.334V30.0006C33.8309 29.3376 33.5495 28.7017 33.0487 28.2329C32.5479 27.7641 31.8687 27.5006 31.1605 27.5006H24.0395C23.3313 27.5006 22.652 27.7641 22.1513 28.2329C21.6505 28.7017 21.3691 29.3376 21.3691 30.0006V33.334C21.3691 33.555 21.2753 33.767 21.1084 33.9232C20.9415 34.0795 20.7151 34.1673 20.479 34.1673C20.2429 34.1673 20.0165 34.0795 19.8496 33.9232C19.6827 33.767 19.5889 33.555 19.5889 33.334Z" fill="white"/>
</svg>
