<svg width="147" height="60" viewBox="0 0 147 60" fill="none" xmlns="http://www.w3.org/2000/svg">
<path d="M79.2095 18.0438C79.4175 18.4078 79.6342 18.7285 79.8595 19.0058C80.0935 19.2831 80.3535 19.4998 80.6395 19.6558C80.9255 19.8118 81.2505 19.8898 81.6145 19.8898C82.0999 19.8898 82.4899 19.7555 82.7845 19.4868C83.0792 19.2181 83.2265 18.8758 83.2265 18.4598C83.2265 18.0525 83.1312 17.7275 82.9405 17.4848C82.7499 17.2421 82.4985 17.0471 82.1865 16.8998C81.8832 16.7438 81.5582 16.6051 81.2115 16.4838C80.9862 16.4058 80.7349 16.3061 80.4575 16.1848C80.1802 16.0548 79.9159 15.8945 79.6645 15.7038C79.4132 15.5045 79.2052 15.2618 79.0405 14.9758C78.8845 14.6898 78.8065 14.3388 78.8065 13.9228C78.8065 13.4721 78.9192 13.0691 79.1445 12.7138C79.3699 12.3585 79.6819 12.0811 80.0805 11.8818C80.4792 11.6738 80.9342 11.5698 81.4455 11.5698C81.9395 11.5698 82.3685 11.6651 82.7325 11.8558C83.1052 12.0378 83.4215 12.2761 83.6815 12.5708C83.9415 12.8568 84.1452 13.1601 84.2925 13.4808L83.3435 14.0268C83.2309 13.8015 83.0879 13.5805 82.9145 13.3638C82.7412 13.1471 82.5289 12.9695 82.2775 12.8308C82.0349 12.6921 81.7359 12.6228 81.3805 12.6228C80.8865 12.6228 80.5269 12.7441 80.3015 12.9868C80.0762 13.2208 79.9635 13.4851 79.9635 13.7798C79.9635 14.0311 80.0285 14.2651 80.1585 14.4818C80.2885 14.6898 80.5052 14.8891 80.8085 15.0798C81.1205 15.2618 81.5409 15.4438 82.0695 15.6258C82.3122 15.7125 82.5679 15.8251 82.8365 15.9638C83.1052 16.1025 83.3522 16.2801 83.5775 16.4968C83.8115 16.7048 84.0022 16.9605 84.1495 17.2638C84.2969 17.5585 84.3705 17.9138 84.3705 18.3298C84.3705 18.7285 84.2925 19.0881 84.1365 19.4088C83.9892 19.7295 83.7812 20.0025 83.5125 20.2278C83.2525 20.4531 82.9535 20.6265 82.6155 20.7478C82.2862 20.8691 81.9395 20.9298 81.5755 20.9298C81.0815 20.9298 80.6222 20.8258 80.1975 20.6178C79.7815 20.4011 79.4132 20.1195 79.0925 19.7728C78.7805 19.4175 78.5249 19.0405 78.3255 18.6418L79.2095 18.0438ZM85.9286 12.3498C85.9286 12.1505 85.9979 11.9815 86.1366 11.8428C86.2839 11.7041 86.4529 11.6348 86.6436 11.6348C86.8429 11.6348 87.0119 11.7041 87.1506 11.8428C87.2893 11.9815 87.3586 12.1505 87.3586 12.3498C87.3586 12.5405 87.2893 12.7095 87.1506 12.8568C87.0119 12.9955 86.8429 13.0648 86.6436 13.0648C86.4529 13.0648 86.2839 12.9955 86.1366 12.8568C85.9979 12.7095 85.9286 12.5405 85.9286 12.3498ZM86.1236 14.8198H87.1636V20.7998H86.1236V14.8198ZM88.9026 21.1898H89.9556C89.9556 21.4758 90.0336 21.7401 90.1896 21.9828C90.3456 22.2341 90.5666 22.4335 90.8526 22.5808C91.1386 22.7368 91.4766 22.8148 91.8666 22.8148C92.1699 22.8148 92.4689 22.7411 92.7636 22.5938C93.0582 22.4465 93.3009 22.2125 93.4916 21.8918C93.6909 21.5798 93.7906 21.1725 93.7906 20.6698V14.8198H94.8306V20.6698C94.8306 21.3545 94.6876 21.9265 94.4016 22.3858C94.1156 22.8538 93.7472 23.2048 93.2966 23.4388C92.8459 23.6728 92.3692 23.7898 91.8666 23.7898C91.2859 23.7898 90.7702 23.6815 90.3196 23.4648C89.8776 23.2481 89.5309 22.9405 89.2796 22.5418C89.0282 22.1518 88.9026 21.7011 88.9026 21.1898ZM88.7856 17.8098C88.7856 17.1598 88.9199 16.6051 89.1886 16.1458C89.4572 15.6778 89.8169 15.3181 90.2676 15.0668C90.7182 14.8155 91.2122 14.6898 91.7496 14.6898C92.2522 14.6898 92.6899 14.8155 93.0626 15.0668C93.4352 15.3181 93.7256 15.6778 93.9336 16.1458C94.1502 16.6051 94.2586 17.1598 94.2586 17.8098C94.2586 18.4511 94.1502 19.0058 93.9336 19.4738C93.7256 19.9418 93.4352 20.3015 93.0626 20.5528C92.6899 20.8041 92.2522 20.9298 91.7496 20.9298C91.2122 20.9298 90.7182 20.8041 90.2676 20.5528C89.8169 20.3015 89.4572 19.9418 89.1886 19.4738C88.9199 19.0058 88.7856 18.4511 88.7856 17.8098ZM89.8386 17.8098C89.8386 18.2691 89.9296 18.6591 90.1116 18.9798C90.3022 19.3005 90.5536 19.5431 90.8656 19.7078C91.1776 19.8725 91.5156 19.9548 91.8796 19.9548C92.1829 19.9548 92.4819 19.8725 92.7766 19.7078C93.0712 19.5431 93.3139 19.3005 93.5046 18.9798C93.6952 18.6591 93.7906 18.2691 93.7906 17.8098C93.7906 17.4631 93.7342 17.1598 93.6216 16.8998C93.5089 16.6311 93.3572 16.4058 93.1666 16.2238C92.9846 16.0418 92.7809 15.9031 92.5556 15.8078C92.3302 15.7125 92.1049 15.6648 91.8796 15.6648C91.5156 15.6648 91.1776 15.7471 90.8656 15.9118C90.5536 16.0765 90.3022 16.3191 90.1116 16.6398C89.9296 16.9605 89.8386 17.3505 89.8386 17.8098ZM100.555 17.1598C100.555 16.6658 100.446 16.2931 100.23 16.0418C100.013 15.7905 99.6966 15.6648 99.2806 15.6648C98.9773 15.6648 98.7086 15.7298 98.4746 15.8598C98.2493 15.9811 98.0716 16.1545 97.9416 16.3798C97.8203 16.6051 97.7596 16.8651 97.7596 17.1598V20.7998H96.7196V14.8198H97.7596V15.7558C97.959 15.3918 98.206 15.1231 98.5006 14.9498C98.804 14.7765 99.1506 14.6898 99.5406 14.6898C100.173 14.6898 100.672 14.9021 101.036 15.3268C101.408 15.7428 101.595 16.3105 101.595 17.0298V20.7998H100.555V17.1598ZM107.512 11.6998H108.617V20.7998H107.512V11.6998ZM114.469 17.1598C114.469 16.6658 114.36 16.2931 114.144 16.0418C113.927 15.7905 113.611 15.6648 113.195 15.6648C112.891 15.6648 112.623 15.7298 112.389 15.8598C112.163 15.9811 111.986 16.1545 111.856 16.3798C111.734 16.6051 111.674 16.8651 111.674 17.1598V20.7998H110.634V14.8198H111.674V15.7558C111.873 15.3918 112.12 15.1231 112.415 14.9498C112.718 14.7765 113.065 14.6898 113.455 14.6898C114.087 14.6898 114.586 14.9021 114.95 15.3268C115.322 15.7428 115.509 16.3105 115.509 17.0298V20.7998H114.469V17.1598ZM80.4235 39.9198L80.7755 38.3198H85.9755L86.3435 39.9198H80.4235ZM83.3515 34.7678L81.5915 38.8798L81.5595 39.2958L80.0075 42.7998H77.8795L83.3515 30.9758L88.8235 42.7998H86.6955L85.1755 39.3918L85.1275 38.9278L83.3515 34.7678ZM91.1344 39.1198C91.1344 39.5891 91.2358 39.9998 91.4384 40.3518C91.6411 40.6931 91.9131 40.9651 92.2544 41.1678C92.6064 41.3705 92.9958 41.4718 93.4224 41.4718C93.7744 41.4718 94.1104 41.4185 94.4304 41.3118C94.7504 41.2051 95.0331 41.0558 95.2784 40.8638C95.5238 40.6718 95.7051 40.4585 95.8224 40.2238V42.1278C95.5664 42.3838 95.2198 42.5865 94.7824 42.7358C94.3451 42.8851 93.8651 42.9598 93.3424 42.9598C92.5851 42.9598 91.9024 42.7998 91.2944 42.4798C90.6971 42.1491 90.2224 41.6958 89.8704 41.1198C89.5291 40.5331 89.3584 39.8665 89.3584 39.1198C89.3584 38.3625 89.5291 37.6958 89.8704 37.1198C90.2224 36.5438 90.6971 36.0958 91.2944 35.7758C91.9024 35.4451 92.5851 35.2798 93.3424 35.2798C93.8651 35.2798 94.3451 35.3545 94.7824 35.5038C95.2198 35.6531 95.5664 35.8558 95.8224 36.1118V38.0158C95.7051 37.7705 95.5184 37.5571 95.2624 37.3758C95.0171 37.1838 94.7344 37.0345 94.4144 36.9278C94.0944 36.8211 93.7638 36.7678 93.4224 36.7678C92.9958 36.7678 92.6064 36.8691 92.2544 37.0718C91.9131 37.2745 91.6411 37.5518 91.4384 37.9038C91.2358 38.2558 91.1344 38.6611 91.1344 39.1198ZM98.8844 39.1198C98.8844 39.5891 98.9858 39.9998 99.1884 40.3518C99.3911 40.6931 99.6631 40.9651 100.004 41.1678C100.356 41.3705 100.746 41.4718 101.172 41.4718C101.524 41.4718 101.86 41.4185 102.18 41.3118C102.5 41.2051 102.783 41.0558 103.028 40.8638C103.274 40.6718 103.455 40.4585 103.572 40.2238V42.1278C103.316 42.3838 102.97 42.5865 102.532 42.7358C102.095 42.8851 101.615 42.9598 101.092 42.9598C100.335 42.9598 99.6524 42.7998 99.0444 42.4798C98.4471 42.1491 97.9724 41.6958 97.6204 41.1198C97.2791 40.5331 97.1084 39.8665 97.1084 39.1198C97.1084 38.3625 97.2791 37.6958 97.6204 37.1198C97.9724 36.5438 98.4471 36.0958 99.0444 35.7758C99.6524 35.4451 100.335 35.2798 101.092 35.2798C101.615 35.2798 102.095 35.3545 102.532 35.5038C102.97 35.6531 103.316 35.8558 103.572 36.1118V38.0158C103.455 37.7705 103.268 37.5571 103.012 37.3758C102.767 37.1838 102.484 37.0345 102.164 36.9278C101.844 36.8211 101.514 36.7678 101.172 36.7678C100.746 36.7678 100.356 36.8691 100.004 37.0718C99.6631 37.2745 99.3911 37.5518 99.1884 37.9038C98.9858 38.2558 98.8844 38.6611 98.8844 39.1198ZM104.922 39.1198C104.922 38.3625 105.093 37.6958 105.434 37.1198C105.786 36.5438 106.261 36.0958 106.858 35.7758C107.456 35.4451 108.133 35.2798 108.89 35.2798C109.648 35.2798 110.32 35.4451 110.906 35.7758C111.504 36.0958 111.978 36.5438 112.33 37.1198C112.682 37.6958 112.858 38.3625 112.858 39.1198C112.858 39.8665 112.682 40.5331 112.33 41.1198C111.978 41.6958 111.504 42.1491 110.906 42.4798C110.32 42.7998 109.648 42.9598 108.89 42.9598C108.133 42.9598 107.456 42.7998 106.858 42.4798C106.261 42.1491 105.786 41.6958 105.434 41.1198C105.093 40.5331 104.922 39.8665 104.922 39.1198ZM106.698 39.1198C106.698 39.5785 106.794 39.9838 106.986 40.3358C107.178 40.6771 107.44 40.9491 107.77 41.1518C108.101 41.3438 108.474 41.4398 108.89 41.4398C109.296 41.4398 109.664 41.3438 109.994 41.1518C110.336 40.9491 110.602 40.6771 110.794 40.3358C110.986 39.9838 111.082 39.5785 111.082 39.1198C111.082 38.6611 110.986 38.2558 110.794 37.9038C110.602 37.5518 110.336 37.2798 109.994 37.0878C109.664 36.8958 109.296 36.7998 108.89 36.7998C108.474 36.7998 108.101 36.8958 107.77 37.0878C107.44 37.2798 107.178 37.5518 106.986 37.9038C106.794 38.2558 106.698 38.6611 106.698 39.1198ZM116.274 39.9198C116.274 40.4425 116.386 40.8478 116.61 41.1358C116.834 41.4238 117.175 41.5678 117.634 41.5678C117.965 41.5678 118.253 41.5038 118.498 41.3758C118.743 41.2371 118.935 41.0451 119.074 40.7998C119.213 40.5438 119.282 40.2505 119.282 39.9198V35.4398H121.01V42.7998H119.282V41.6638C119.047 42.0905 118.743 42.4158 118.37 42.6398C118.007 42.8531 117.57 42.9598 117.058 42.9598C116.237 42.9598 115.602 42.7038 115.154 42.1918C114.717 41.6798 114.498 40.9865 114.498 40.1118V35.4398H116.274V39.9198ZM127.953 38.3198C127.953 37.7758 127.841 37.3651 127.617 37.0878C127.393 36.8105 127.046 36.6718 126.577 36.6718C126.257 36.6718 125.974 36.7411 125.729 36.8798C125.483 37.0078 125.291 37.1998 125.153 37.4558C125.014 37.7011 124.945 37.9891 124.945 38.3198V42.7998H123.217V35.4398H124.945V36.5758C125.179 36.1385 125.478 35.8131 125.841 35.5998C126.214 35.3865 126.657 35.2798 127.169 35.2798C128.001 35.2798 128.635 35.5358 129.073 36.0478C129.51 36.5491 129.729 37.2425 129.729 38.1278V42.7998H127.953V38.3198ZM130.912 35.4398H135.088V36.9598H130.912V35.4398ZM132.144 32.8798H133.856V42.7998H132.144V32.8798Z" fill="white"/>
<rect x="1.48047" y="0.5" width="58.1163" height="59" rx="5.5" stroke="white" stroke-opacity="0.1"/>
<g clip-path="url(#clip0_7_3837)">
<path d="M29 33.5455C31.8568 33.5455 34.6495 33.119 37.025 32.3197C39.4003 31.5206 41.2518 30.3848 42.3449 29.0559C43.4381 27.727 43.7244 26.2647 43.1668 24.8539C42.6096 23.4431 41.2339 22.1472 39.2137 21.1301C37.1938 20.113 34.62 19.4204 31.8181 19.1397C29.0159 18.8591 26.1117 19.0032 23.4724 19.5536C20.833 20.1041 18.5771 21.0362 16.9899 22.2322C15.4027 23.4282 14.5556 24.8343 14.5556 26.2727C14.5601 28.2009 16.0834 30.0494 18.7913 31.4128C21.4992 32.7761 25.1705 33.5431 29 33.5455ZM29 21.9091C30.714 21.9091 32.3898 22.165 33.8149 22.6445C35.2403 23.124 36.3511 23.8055 37.0068 24.6028C37.6629 25.4002 37.8345 26.2776 37.5003 27.124C37.1657 27.9705 36.3404 28.748 35.1282 29.3583C33.9163 29.9686 32.3719 30.3841 30.6909 30.5525C29.0095 30.7209 27.267 30.6345 25.6833 30.3042C24.0999 29.9739 22.7463 29.4146 21.7939 28.697C20.8416 27.9794 20.3333 27.1358 20.3333 26.2727C20.3333 25.1154 21.2464 24.0055 22.8717 23.1872C24.4971 22.3688 26.7016 21.9091 29 21.9091ZM3 49.5455V43.7273C3.00459 41.7991 4.52788 39.9507 7.23575 38.5872C9.94362 37.2239 13.615 36.4569 17.4444 36.4545H40.5556C44.3851 36.4569 48.0563 37.2239 50.7643 38.5872C53.4721 39.9507 54.9954 41.7991 55 43.7273V49.5455C55 49.9312 54.6955 50.3012 54.1538 50.574C53.6122 50.8467 52.8772 51 52.1111 51C51.345 51 50.61 50.8467 50.0684 50.574C49.5267 50.3012 49.2222 49.9312 49.2222 49.5455V43.7273C49.2222 42.57 48.309 41.4601 46.6838 40.6417C45.0585 39.8234 42.854 39.3636 40.5556 39.3636H17.4444C15.1459 39.3636 12.9415 39.8234 11.3162 40.6417C9.69087 41.4601 8.77778 42.57 8.77778 43.7273V49.5455C8.77778 49.9312 8.4734 50.3012 7.93165 50.574C7.38987 50.8467 6.65508 51 5.88889 51C5.1227 51 4.38791 50.8467 3.84613 50.574C3.30437 50.3012 3 49.9312 3 49.5455Z" fill="white"/>
</g>
<defs>
<clipPath id="clip0_7_3837">
<rect width="37.1595" height="34" fill="white" transform="translate(18.3042 18)"/>
</clipPath>
</defs>
</svg>
