<svg width="423" height="240" viewBox="0 0 423 240" fill="none" xmlns="http://www.w3.org/2000/svg">
<mask id="mask0_1_1115" style="mask-type:alpha" maskUnits="userSpaceOnUse" x="0" y="0" width="423" height="240">
<rect x="0.600098" width="422.4" height="240" rx="6" fill="#F3F5F6"/>
</mask>
<g mask="url(#mask0_1_1115)">
<rect x="0.600098" width="422.4" height="240" fill="#F2F2F2"/>
<rect x="187" width="236" height="240"/>
</g>
<path d="M39.904 63.82L38.884 64.51C39.114 64.97 39.409 65.405 39.769 65.815C40.139 66.215 40.564 66.54 41.044 66.79C41.534 67.03 42.064 67.15 42.634 67.15C43.054 67.15 43.454 67.08 43.834 66.94C44.224 66.8 44.569 66.6 44.869 66.34C45.179 66.08 45.419 65.765 45.589 65.395C45.769 65.025 45.859 64.61 45.859 64.15C45.859 63.67 45.774 63.26 45.604 62.92C45.434 62.57 45.214 62.275 44.944 62.035C44.684 61.785 44.399 61.58 44.089 61.42C43.779 61.26 43.484 61.13 43.204 61.03C42.594 60.82 42.109 60.61 41.749 60.4C41.399 60.18 41.149 59.95 40.999 59.71C40.849 59.46 40.774 59.19 40.774 58.9C40.774 58.56 40.904 58.255 41.164 57.985C41.424 57.705 41.839 57.565 42.409 57.565C42.819 57.565 43.164 57.645 43.444 57.805C43.734 57.965 43.979 58.17 44.179 58.42C44.379 58.67 44.544 58.925 44.674 59.185L45.769 58.555C45.599 58.185 45.364 57.835 45.064 57.505C44.764 57.165 44.399 56.89 43.969 56.68C43.549 56.46 43.054 56.35 42.484 56.35C41.894 56.35 41.369 56.47 40.909 56.71C40.449 56.94 40.089 57.26 39.829 57.67C39.569 58.08 39.439 58.545 39.439 59.065C39.439 59.545 39.529 59.95 39.709 60.28C39.899 60.61 40.139 60.89 40.429 61.12C40.719 61.34 41.024 61.525 41.344 61.675C41.664 61.815 41.954 61.93 42.214 62.02C42.614 62.16 42.989 62.32 43.339 62.5C43.699 62.67 43.989 62.895 44.209 63.175C44.429 63.455 44.539 63.83 44.539 64.3C44.539 64.78 44.369 65.175 44.029 65.485C43.689 65.795 43.239 65.95 42.679 65.95C42.259 65.95 41.884 65.86 41.554 65.68C41.224 65.5 40.924 65.25 40.654 64.93C40.394 64.61 40.144 64.24 39.904 63.82ZM46.6067 60.1V61.225H50.0567V60.1H46.6067ZM47.7317 57.7V67H48.9317V57.7H47.7317ZM51.8003 64.87C51.8003 64.62 51.8603 64.405 51.9803 64.225C52.1003 64.045 52.2803 63.905 52.5203 63.805C52.7703 63.705 53.0903 63.655 53.4803 63.655C53.9003 63.655 54.2953 63.71 54.6653 63.82C55.0353 63.92 55.3953 64.09 55.7453 64.33V63.625C55.6753 63.535 55.5403 63.42 55.3403 63.28C55.1403 63.13 54.8703 63 54.5303 62.89C54.2003 62.77 53.7853 62.71 53.2853 62.71C52.4353 62.71 51.7703 62.915 51.2903 63.325C50.8203 63.725 50.5853 64.26 50.5853 64.93C50.5853 65.4 50.6953 65.8 50.9153 66.13C51.1353 66.46 51.4253 66.715 51.7853 66.895C52.1553 67.065 52.5503 67.15 52.9703 67.15C53.3503 67.15 53.7303 67.08 54.1103 66.94C54.5003 66.8 54.8253 66.585 55.0853 66.295C55.3553 66.005 55.4903 65.64 55.4903 65.2L55.2503 64.3C55.2503 64.66 55.1603 64.98 54.9803 65.26C54.8103 65.53 54.5753 65.74 54.2753 65.89C53.9853 66.04 53.6553 66.115 53.2853 66.115C52.9953 66.115 52.7353 66.07 52.5053 65.98C52.2853 65.88 52.1103 65.735 51.9803 65.545C51.8603 65.355 51.8003 65.13 51.8003 64.87ZM51.6203 61.69C51.7303 61.61 51.8803 61.515 52.0703 61.405C52.2603 61.295 52.4903 61.2 52.7603 61.12C53.0403 61.04 53.3503 61 53.6903 61C53.9003 61 54.1003 61.02 54.2903 61.06C54.4803 61.1 54.6453 61.165 54.7853 61.255C54.9353 61.345 55.0503 61.47 55.1303 61.63C55.2103 61.78 55.2503 61.975 55.2503 62.215V67H56.4503V62.05C56.4503 61.6 56.3353 61.22 56.1053 60.91C55.8853 60.6 55.5703 60.365 55.1603 60.205C54.7603 60.035 54.2903 59.95 53.7503 59.95C53.1103 59.95 52.5603 60.045 52.1003 60.235C51.6503 60.425 51.2953 60.615 51.0353 60.805L51.6203 61.69ZM59.6819 60.1H58.4819V67H59.6819V60.1ZM61.7669 61.42L62.4269 60.43C62.2469 60.24 62.0469 60.115 61.8269 60.055C61.6169 59.985 61.3869 59.95 61.1369 59.95C60.8169 59.95 60.5019 60.075 60.1919 60.325C59.8819 60.575 59.6269 60.915 59.4269 61.345C59.2369 61.765 59.1419 62.25 59.1419 62.8H59.6819C59.6819 62.47 59.7119 62.175 59.7719 61.915C59.8419 61.655 59.9619 61.45 60.1319 61.3C60.3019 61.15 60.5369 61.075 60.8369 61.075C61.0369 61.075 61.2019 61.105 61.3319 61.165C61.4619 61.215 61.6069 61.3 61.7669 61.42ZM62.5735 60.1V61.225H66.0235V60.1H62.5735ZM63.6985 57.7V67H64.8985V57.7H63.6985ZM67.2271 57.25C67.2271 57.47 67.3071 57.665 67.4671 57.835C67.6371 57.995 67.8321 58.075 68.0521 58.075C68.2821 58.075 68.4771 57.995 68.6371 57.835C68.7971 57.665 68.8771 57.47 68.8771 57.25C68.8771 57.02 68.7971 56.825 68.6371 56.665C68.4771 56.505 68.2821 56.425 68.0521 56.425C67.8321 56.425 67.6371 56.505 67.4671 56.665C67.3071 56.825 67.2271 57.02 67.2271 57.25ZM67.4521 60.1V67H68.6521V60.1H67.4521ZM75.5485 62.8V67H76.7485V62.65C76.7485 61.82 76.5335 61.165 76.1035 60.685C75.6835 60.195 75.1085 59.95 74.3785 59.95C73.9285 59.95 73.5285 60.05 73.1785 60.25C72.8385 60.45 72.5535 60.76 72.3235 61.18V60.1H71.1235V67H72.3235V62.8C72.3235 62.46 72.3935 62.16 72.5335 61.9C72.6835 61.64 72.8885 61.44 73.1485 61.3C73.4185 61.15 73.7285 61.075 74.0785 61.075C74.5585 61.075 74.9235 61.22 75.1735 61.51C75.4235 61.8 75.5485 62.23 75.5485 62.8ZM78.5394 67.45C78.5394 68.04 78.6844 68.56 78.9744 69.01C79.2644 69.47 79.6644 69.825 80.1744 70.075C80.6944 70.325 81.2894 70.45 81.9594 70.45C82.5394 70.45 83.0894 70.315 83.6094 70.045C84.1294 69.775 84.5544 69.37 84.8844 68.83C85.2144 68.3 85.3794 67.64 85.3794 66.85V60.1H84.1794V66.85C84.1794 67.43 84.0644 67.9 83.8344 68.26C83.6144 68.63 83.3344 68.9 82.9944 69.07C82.6544 69.24 82.3094 69.325 81.9594 69.325C81.5094 69.325 81.1194 69.235 80.7894 69.055C80.4594 68.885 80.2044 68.655 80.0244 68.365C79.8444 68.085 79.7544 67.78 79.7544 67.45H78.5394ZM78.4044 63.55C78.4044 64.29 78.5594 64.93 78.8694 65.47C79.1794 66.01 79.5944 66.425 80.1144 66.715C80.6344 67.005 81.2044 67.15 81.8244 67.15C82.4044 67.15 82.9094 67.005 83.3394 66.715C83.7694 66.425 84.1044 66.01 84.3444 65.47C84.5944 64.93 84.7194 64.29 84.7194 63.55C84.7194 62.8 84.5944 62.16 84.3444 61.63C84.1044 61.09 83.7694 60.675 83.3394 60.385C82.9094 60.095 82.4044 59.95 81.8244 59.95C81.2044 59.95 80.6344 60.095 80.1144 60.385C79.5944 60.675 79.1794 61.09 78.8694 61.63C78.5594 62.16 78.4044 62.8 78.4044 63.55ZM79.6194 63.55C79.6194 63.02 79.7244 62.57 79.9344 62.2C80.1544 61.83 80.4444 61.55 80.8044 61.36C81.1644 61.17 81.5544 61.075 81.9744 61.075C82.2344 61.075 82.4944 61.13 82.7544 61.24C83.0144 61.35 83.2494 61.51 83.4594 61.72C83.6794 61.93 83.8544 62.19 83.9844 62.5C84.1144 62.8 84.1794 63.15 84.1794 63.55C84.1794 64.08 84.0694 64.53 83.8494 64.9C83.6294 65.27 83.3494 65.55 83.0094 65.74C82.6694 65.93 82.3244 66.025 81.9744 66.025C81.5544 66.025 81.1644 65.93 80.8044 65.74C80.4444 65.55 80.1544 65.27 79.9344 64.9C79.7244 64.53 79.6194 64.08 79.6194 63.55ZM91.5312 60.1V61.225H94.9812V60.1H91.5312ZM94.8612 56.74L95.5212 55.75C95.4512 55.65 95.3512 55.555 95.2212 55.465C95.1012 55.375 94.9562 55.3 94.7862 55.24C94.6162 55.18 94.4212 55.15 94.2012 55.15C93.7812 55.15 93.4212 55.24 93.1212 55.42C92.8312 55.59 92.6062 55.85 92.4462 56.2C92.2862 56.55 92.2062 57 92.2062 57.55V67H93.4062V57.7C93.4062 57.37 93.4362 57.105 93.4962 56.905C93.5562 56.705 93.6362 56.565 93.7362 56.485C93.8462 56.395 93.9762 56.35 94.1262 56.35C94.2462 56.35 94.3712 56.375 94.5012 56.425C94.6412 56.465 94.7612 56.57 94.8612 56.74ZM97.5481 60.1H96.3481V67H97.5481V60.1ZM99.6331 61.42L100.293 60.43C100.113 60.24 99.9131 60.115 99.6931 60.055C99.4831 59.985 99.2531 59.95 99.0031 59.95C98.6831 59.95 98.3681 60.075 98.0581 60.325C97.7481 60.575 97.4931 60.915 97.2931 61.345C97.1031 61.765 97.0081 62.25 97.0081 62.8H97.5481C97.5481 62.47 97.5781 62.175 97.6381 61.915C97.7081 61.655 97.8281 61.45 97.9981 61.3C98.1681 61.15 98.4031 61.075 98.7031 61.075C98.9031 61.075 99.0681 61.105 99.1981 61.165C99.3281 61.215 99.4731 61.3 99.6331 61.42ZM100.67 63.55C100.67 64.24 100.825 64.86 101.135 65.41C101.455 65.95 101.885 66.375 102.425 66.685C102.965 66.995 103.57 67.15 104.24 67.15C104.92 67.15 105.525 66.995 106.055 66.685C106.595 66.375 107.02 65.95 107.33 65.41C107.65 64.86 107.81 64.24 107.81 63.55C107.81 62.85 107.65 62.23 107.33 61.69C107.02 61.15 106.595 60.725 106.055 60.415C105.525 60.105 104.92 59.95 104.24 59.95C103.57 59.95 102.965 60.105 102.425 60.415C101.885 60.725 101.455 61.15 101.135 61.69C100.825 62.23 100.67 62.85 100.67 63.55ZM101.885 63.55C101.885 63.07 101.985 62.645 102.185 62.275C102.395 61.895 102.675 61.6 103.025 61.39C103.385 61.18 103.79 61.075 104.24 61.075C104.69 61.075 105.09 61.18 105.44 61.39C105.8 61.6 106.08 61.895 106.28 62.275C106.49 62.645 106.595 63.07 106.595 63.55C106.595 64.03 106.49 64.455 106.28 64.825C106.08 65.195 105.8 65.49 105.44 65.71C105.09 65.92 104.69 66.025 104.24 66.025C103.79 66.025 103.385 65.92 103.025 65.71C102.675 65.49 102.395 65.195 102.185 64.825C101.985 64.455 101.885 64.03 101.885 63.55ZM118.908 62.65C118.908 62.08 118.818 61.595 118.638 61.195C118.468 60.785 118.218 60.475 117.888 60.265C117.558 60.055 117.158 59.95 116.688 59.95C116.228 59.95 115.818 60.06 115.458 60.28C115.098 60.49 114.798 60.81 114.558 61.24C114.398 60.83 114.143 60.515 113.793 60.295C113.453 60.065 113.043 59.95 112.563 59.95C112.133 59.95 111.758 60.045 111.438 60.235C111.128 60.425 110.868 60.715 110.658 61.105V60.1H109.458V67H110.658V62.8C110.658 62.44 110.723 62.13 110.853 61.87C110.983 61.61 111.168 61.415 111.408 61.285C111.648 61.145 111.933 61.075 112.263 61.075C112.713 61.075 113.043 61.215 113.253 61.495C113.473 61.775 113.583 62.21 113.583 62.8V67H114.783V62.8C114.783 62.44 114.848 62.13 114.978 61.87C115.108 61.61 115.293 61.415 115.533 61.285C115.773 61.145 116.058 61.075 116.388 61.075C116.838 61.075 117.168 61.215 117.378 61.495C117.598 61.775 117.708 62.21 117.708 62.8V67H118.908V62.65ZM128.435 54.73L128.48 57.16H129.815L129.845 54.73H128.435ZM128.48 66.205L128.435 68.68H129.845L129.8 66.205H128.48ZM131.18 59.44L132.575 58.585C132.405 58.215 132.165 57.86 131.855 57.52C131.555 57.18 131.175 56.9 130.715 56.68C130.265 56.46 129.725 56.35 129.095 56.35C128.465 56.35 127.9 56.47 127.4 56.71C126.9 56.95 126.505 57.27 126.215 57.67C125.935 58.07 125.795 58.515 125.795 59.005C125.795 59.505 125.885 59.93 126.065 60.28C126.245 60.63 126.475 60.93 126.755 61.18C127.035 61.42 127.33 61.62 127.64 61.78C127.96 61.93 128.25 62.05 128.51 62.14C128.91 62.29 129.285 62.45 129.635 62.62C129.995 62.79 130.285 63 130.505 63.25C130.735 63.49 130.85 63.805 130.85 64.195C130.85 64.495 130.79 64.755 130.67 64.975C130.56 65.185 130.385 65.345 130.145 65.455C129.915 65.565 129.62 65.62 129.26 65.62C128.85 65.62 128.485 65.535 128.165 65.365C127.855 65.195 127.57 64.95 127.31 64.63C127.05 64.31 126.81 63.92 126.59 63.46L125.225 64.345C125.445 64.885 125.75 65.365 126.14 65.785C126.53 66.205 126.985 66.54 127.505 66.79C128.025 67.03 128.585 67.15 129.185 67.15C129.935 67.15 130.57 67.03 131.09 66.79C131.61 66.54 132.01 66.185 132.29 65.725C132.57 65.265 132.71 64.73 132.71 64.12C132.71 63.65 132.63 63.24 132.47 62.89C132.31 62.54 132.1 62.245 131.84 62.005C131.58 61.755 131.29 61.545 130.97 61.375C130.66 61.205 130.355 61.065 130.055 60.955C129.635 60.795 129.24 60.635 128.87 60.475C128.5 60.315 128.2 60.125 127.97 59.905C127.74 59.685 127.625 59.405 127.625 59.065C127.625 58.805 127.675 58.585 127.775 58.405C127.885 58.215 128.05 58.07 128.27 57.97C128.5 57.87 128.79 57.82 129.14 57.82C129.48 57.82 129.775 57.895 130.025 58.045C130.275 58.195 130.49 58.395 130.67 58.645C130.86 58.885 131.03 59.15 131.18 59.44ZM134.67 59.035C134.67 59.475 134.75 59.865 134.91 60.205C135.08 60.535 135.31 60.815 135.6 61.045C135.89 61.275 136.225 61.45 136.605 61.57C136.985 61.69 137.39 61.75 137.82 61.75C138.25 61.75 138.655 61.69 139.035 61.57C139.415 61.45 139.75 61.275 140.04 61.045C140.33 60.815 140.56 60.535 140.73 60.205C140.9 59.865 140.985 59.475 140.985 59.035C140.985 58.495 140.84 58.025 140.55 57.625C140.27 57.215 139.89 56.895 139.41 56.665C138.94 56.435 138.41 56.32 137.82 56.32C137.23 56.32 136.695 56.435 136.215 56.665C135.745 56.895 135.37 57.215 135.09 57.625C134.81 58.025 134.67 58.495 134.67 59.035ZM136.35 59.215C136.35 58.925 136.41 58.665 136.53 58.435C136.66 58.205 136.835 58.03 137.055 57.91C137.285 57.78 137.54 57.715 137.82 57.715C138.11 57.715 138.365 57.78 138.585 57.91C138.805 58.03 138.975 58.205 139.095 58.435C139.225 58.665 139.29 58.925 139.29 59.215C139.29 59.515 139.225 59.775 139.095 59.995C138.965 60.215 138.785 60.39 138.555 60.52C138.335 60.64 138.09 60.7 137.82 60.7C137.55 60.7 137.305 60.64 137.085 60.52C136.865 60.39 136.685 60.215 136.545 59.995C136.415 59.775 136.35 59.515 136.35 59.215ZM134.295 64.15C134.295 64.59 134.385 64.995 134.565 65.365C134.745 65.725 134.995 66.045 135.315 66.325C135.645 66.595 136.02 66.805 136.44 66.955C136.87 67.105 137.33 67.18 137.82 67.18C138.31 67.18 138.765 67.105 139.185 66.955C139.615 66.805 139.99 66.595 140.31 66.325C140.64 66.045 140.895 65.725 141.075 65.365C141.265 64.995 141.36 64.59 141.36 64.15C141.36 63.64 141.255 63.195 141.045 62.815C140.845 62.435 140.575 62.12 140.235 61.87C139.895 61.61 139.515 61.42 139.095 61.3C138.675 61.18 138.25 61.12 137.82 61.12C137.39 61.12 136.965 61.18 136.545 61.3C136.125 61.42 135.745 61.61 135.405 61.87C135.065 62.12 134.795 62.435 134.595 62.815C134.395 63.195 134.295 63.64 134.295 64.15ZM136.035 63.91C136.035 63.58 136.115 63.28 136.275 63.01C136.445 62.74 136.665 62.53 136.935 62.38C137.215 62.22 137.51 62.14 137.82 62.14C138.13 62.14 138.42 62.22 138.69 62.38C138.97 62.53 139.195 62.74 139.365 63.01C139.535 63.28 139.62 63.58 139.62 63.91C139.62 64.29 139.535 64.615 139.365 64.885C139.195 65.145 138.97 65.345 138.69 65.485C138.42 65.625 138.13 65.695 137.82 65.695C137.51 65.695 137.215 65.625 136.935 65.485C136.665 65.345 136.445 65.145 136.275 64.885C136.115 64.615 136.035 64.29 136.035 63.91ZM148.877 60.04C148.877 60.47 148.782 60.85 148.592 61.18C148.412 61.51 148.162 61.77 147.842 61.96C147.522 62.15 147.162 62.245 146.762 62.245C146.352 62.245 145.987 62.15 145.667 61.96C145.347 61.77 145.092 61.51 144.902 61.18C144.722 60.85 144.632 60.47 144.632 60.04C144.632 59.61 144.722 59.235 144.902 58.915C145.092 58.585 145.347 58.33 145.667 58.15C145.987 57.96 146.352 57.865 146.762 57.865C147.162 57.865 147.522 57.96 147.842 58.15C148.162 58.33 148.412 58.585 148.592 58.915C148.782 59.235 148.877 59.61 148.877 60.04ZM146.387 66.985L149.717 62.515C149.977 62.175 150.187 61.8 150.347 61.39C150.517 60.98 150.602 60.53 150.602 60.04C150.602 59.26 150.432 58.595 150.092 58.045C149.752 57.485 149.292 57.06 148.712 56.77C148.132 56.47 147.482 56.32 146.762 56.32C146.042 56.32 145.392 56.47 144.812 56.77C144.232 57.06 143.767 57.485 143.417 58.045C143.077 58.595 142.907 59.26 142.907 60.04C142.907 60.54 142.992 61 143.162 61.42C143.332 61.84 143.562 62.205 143.852 62.515C144.152 62.815 144.492 63.045 144.872 63.205C145.252 63.365 145.652 63.445 146.072 63.445C146.422 63.445 146.727 63.405 146.987 63.325C147.247 63.245 147.497 63.075 147.737 62.815L147.467 62.86L144.137 66.985H146.387ZM158.076 60.04C158.076 60.47 157.981 60.85 157.791 61.18C157.611 61.51 157.361 61.77 157.041 61.96C156.721 62.15 156.361 62.245 155.961 62.245C155.551 62.245 155.186 62.15 154.866 61.96C154.546 61.77 154.291 61.51 154.101 61.18C153.921 60.85 153.831 60.47 153.831 60.04C153.831 59.61 153.921 59.235 154.101 58.915C154.291 58.585 154.546 58.33 154.866 58.15C155.186 57.96 155.551 57.865 155.961 57.865C156.361 57.865 156.721 57.96 157.041 58.15C157.361 58.33 157.611 58.585 157.791 58.915C157.981 59.235 158.076 59.61 158.076 60.04ZM155.586 66.985L158.916 62.515C159.176 62.175 159.386 61.8 159.546 61.39C159.716 60.98 159.801 60.53 159.801 60.04C159.801 59.26 159.631 58.595 159.291 58.045C158.951 57.485 158.491 57.06 157.911 56.77C157.331 56.47 156.681 56.32 155.961 56.32C155.241 56.32 154.591 56.47 154.011 56.77C153.431 57.06 152.966 57.485 152.616 58.045C152.276 58.595 152.106 59.26 152.106 60.04C152.106 60.54 152.191 61 152.361 61.42C152.531 61.84 152.761 62.205 153.051 62.515C153.351 62.815 153.691 63.045 154.071 63.205C154.451 63.365 154.851 63.445 155.271 63.445C155.621 63.445 155.926 63.405 156.186 63.325C156.446 63.245 156.696 63.075 156.936 62.815L156.666 62.86L153.336 66.985H155.586ZM160.76 66.235C160.76 66.515 160.86 66.76 161.06 66.97C161.27 67.18 161.52 67.285 161.81 67.285C162.12 67.285 162.375 67.18 162.575 66.97C162.775 66.76 162.875 66.515 162.875 66.235C162.875 65.945 162.775 65.7 162.575 65.5C162.375 65.29 162.12 65.185 161.81 65.185C161.52 65.185 161.27 65.29 161.06 65.5C160.86 65.7 160.76 65.945 160.76 66.235Z" fill="#0053F6"/>
<path d="M41.564 99.654H54.538V96.82H41.564V99.654ZM52.562 89.8V108H55.63V89.8H52.562ZM40.342 89.8V108H43.41V89.8H40.342ZM64.6556 108.26C66.0423 108.26 67.2296 107.991 68.2176 107.454C69.2056 106.917 70.0116 106.111 70.6356 105.036L68.2176 104.048C67.8363 104.689 67.3596 105.166 66.7876 105.478C66.2156 105.79 65.5483 105.946 64.7856 105.946C64.0576 105.946 63.4336 105.79 62.9136 105.478C62.411 105.166 62.0296 104.715 61.7696 104.126C61.5096 103.519 61.3796 102.783 61.3796 101.916C61.397 101.049 61.5356 100.321 61.7956 99.732C62.0556 99.1427 62.437 98.692 62.9396 98.38C63.4423 98.068 64.049 97.912 64.7596 97.912C65.349 97.912 65.8603 98.042 66.2936 98.302C66.7443 98.562 67.091 98.926 67.3336 99.394C67.5936 99.862 67.7236 100.417 67.7236 101.058C67.7236 101.179 67.689 101.335 67.6196 101.526C67.5676 101.699 67.5156 101.838 67.4636 101.942L68.3216 100.746H60.2096V102.67H70.7136C70.731 102.601 70.7396 102.488 70.7396 102.332C70.757 102.176 70.7656 102.029 70.7656 101.89C70.7656 100.607 70.523 99.5153 70.0376 98.614C69.5696 97.6953 68.8936 96.9933 68.0096 96.508C67.1256 96.0227 66.051 95.78 64.7856 95.78C63.5203 95.78 62.4196 96.04 61.4836 96.56C60.5476 97.0627 59.8196 97.782 59.2996 98.718C58.797 99.654 58.5456 100.755 58.5456 102.02C58.5456 103.268 58.797 104.36 59.2996 105.296C59.8023 106.232 60.513 106.96 61.4316 107.48C62.3676 108 63.4423 108.26 64.6556 108.26ZM75.2139 104.282C75.2139 103.901 75.3005 103.58 75.4739 103.32C75.6645 103.06 75.9419 102.861 76.3059 102.722C76.6699 102.566 77.1465 102.488 77.7359 102.488C78.4119 102.488 79.0532 102.575 79.6599 102.748C80.2665 102.921 80.8385 103.199 81.3759 103.58V102.15C81.2199 101.959 80.9512 101.751 80.5699 101.526C80.1885 101.283 79.7032 101.075 79.1139 100.902C78.5419 100.729 77.8572 100.642 77.0599 100.642C75.5692 100.642 74.4165 100.989 73.6019 101.682C72.7872 102.358 72.3799 103.277 72.3799 104.438C72.3799 105.253 72.5705 105.946 72.9519 106.518C73.3332 107.09 73.8445 107.523 74.4859 107.818C75.1272 108.113 75.8205 108.26 76.5659 108.26C77.2592 108.26 77.9352 108.139 78.5939 107.896C79.2699 107.636 79.8245 107.255 80.2579 106.752C80.7085 106.232 80.9339 105.591 80.9339 104.828L80.5179 103.268C80.5179 103.857 80.3705 104.377 80.0759 104.828C79.7985 105.261 79.4259 105.591 78.9579 105.816C78.5072 106.041 78.0045 106.154 77.4499 106.154C77.0165 106.154 76.6265 106.085 76.2799 105.946C75.9505 105.807 75.6905 105.599 75.4999 105.322C75.3092 105.027 75.2139 104.681 75.2139 104.282ZM74.3299 99.16C74.5032 99.0387 74.7632 98.8913 75.1099 98.718C75.4739 98.5273 75.8985 98.3713 76.3839 98.25C76.8865 98.1113 77.4152 98.042 77.9699 98.042C78.3339 98.042 78.6719 98.0767 78.9839 98.146C79.2959 98.2153 79.5645 98.328 79.7899 98.484C80.0152 98.64 80.1885 98.8393 80.3099 99.082C80.4485 99.3247 80.5179 99.6367 80.5179 100.018V108H83.2739V99.472C83.2739 98.6747 83.0572 98.0073 82.6239 97.47C82.1905 96.9153 81.5925 96.4907 80.8299 96.196C80.0845 95.9013 79.2179 95.754 78.2299 95.754C77.1205 95.754 76.1325 95.91 75.2659 96.222C74.4165 96.534 73.7232 96.8547 73.1859 97.184L74.3299 99.16ZM86.5474 87.72V108H89.3554V87.72H86.5474ZM91.2819 96.04V98.51H98.0679V96.04H91.2819ZM93.2839 91.88V108H96.0659V91.88H93.2839ZM102.812 87.72H100.004V108H102.812V87.72ZM107.7 100.72V108H110.534V100.33C110.534 99.3073 110.378 98.458 110.066 97.782C109.754 97.0887 109.286 96.5687 108.662 96.222C108.056 95.8753 107.31 95.702 106.426 95.702C105.525 95.702 104.754 95.9273 104.112 96.378C103.488 96.8287 103.003 97.4267 102.656 98.172C102.31 98.9173 102.136 99.7667 102.136 100.72H102.812C102.812 100.183 102.925 99.7147 103.15 99.316C103.376 98.9173 103.688 98.6053 104.086 98.38C104.485 98.1547 104.944 98.042 105.464 98.042C106.244 98.042 106.808 98.2673 107.154 98.718C107.518 99.1687 107.7 99.836 107.7 100.72ZM124.387 98.9C124.387 97.6 124.673 96.4733 125.245 95.52C125.835 94.5493 126.597 93.804 127.533 93.284C128.487 92.7467 129.518 92.478 130.627 92.478C131.494 92.478 132.274 92.5907 132.967 92.816C133.661 93.0413 134.285 93.3533 134.839 93.752C135.411 94.1333 135.905 94.5667 136.321 95.052V91.412C135.559 90.788 134.735 90.3113 133.851 89.982C132.967 89.6527 131.858 89.488 130.523 89.488C129.189 89.488 127.941 89.7133 126.779 90.164C125.635 90.6147 124.639 91.2647 123.789 92.114C122.94 92.9633 122.273 93.9687 121.787 95.13C121.319 96.274 121.085 97.5307 121.085 98.9C121.085 100.269 121.319 101.535 121.787 102.696C122.273 103.84 122.94 104.837 123.789 105.686C124.639 106.535 125.635 107.185 126.779 107.636C127.941 108.087 129.189 108.312 130.523 108.312C131.858 108.312 132.967 108.147 133.851 107.818C134.735 107.489 135.559 107.012 136.321 106.388V102.748C135.905 103.233 135.411 103.675 134.839 104.074C134.285 104.455 133.661 104.759 132.967 104.984C132.274 105.209 131.494 105.322 130.627 105.322C129.518 105.322 128.487 105.062 127.533 104.542C126.597 104.005 125.835 103.251 125.245 102.28C124.673 101.309 124.387 100.183 124.387 98.9ZM141.636 104.282C141.636 103.901 141.722 103.58 141.896 103.32C142.086 103.06 142.364 102.861 142.728 102.722C143.092 102.566 143.568 102.488 144.158 102.488C144.834 102.488 145.475 102.575 146.082 102.748C146.688 102.921 147.26 103.199 147.798 103.58V102.15C147.642 101.959 147.373 101.751 146.992 101.526C146.61 101.283 146.125 101.075 145.536 100.902C144.964 100.729 144.279 100.642 143.482 100.642C141.991 100.642 140.838 100.989 140.024 101.682C139.209 102.358 138.802 103.277 138.802 104.438C138.802 105.253 138.992 105.946 139.374 106.518C139.755 107.09 140.266 107.523 140.908 107.818C141.549 108.113 142.242 108.26 142.988 108.26C143.681 108.26 144.357 108.139 145.016 107.896C145.692 107.636 146.246 107.255 146.68 106.752C147.13 106.232 147.356 105.591 147.356 104.828L146.94 103.268C146.94 103.857 146.792 104.377 146.498 104.828C146.22 105.261 145.848 105.591 145.38 105.816C144.929 106.041 144.426 106.154 143.872 106.154C143.438 106.154 143.048 106.085 142.702 105.946C142.372 105.807 142.112 105.599 141.922 105.322C141.731 105.027 141.636 104.681 141.636 104.282ZM140.752 99.16C140.925 99.0387 141.185 98.8913 141.532 98.718C141.896 98.5273 142.32 98.3713 142.806 98.25C143.308 98.1113 143.837 98.042 144.392 98.042C144.756 98.042 145.094 98.0767 145.406 98.146C145.718 98.2153 145.986 98.328 146.212 98.484C146.437 98.64 146.61 98.8393 146.732 99.082C146.87 99.3247 146.94 99.6367 146.94 100.018V108H149.696V99.472C149.696 98.6747 149.479 98.0073 149.046 97.47C148.612 96.9153 148.014 96.4907 147.252 96.196C146.506 95.9013 145.64 95.754 144.652 95.754C143.542 95.754 142.554 95.91 141.688 96.222C140.838 96.534 140.145 96.8547 139.608 97.184L140.752 99.16ZM155.751 96.04H152.969V108H155.751V96.04ZM159.313 99.03L160.665 96.664C160.405 96.3347 160.085 96.1093 159.703 95.988C159.322 95.8493 158.915 95.78 158.481 95.78C157.875 95.78 157.285 95.9967 156.713 96.43C156.159 96.8633 155.699 97.4527 155.335 98.198C154.989 98.926 154.815 99.7667 154.815 100.72L155.751 101.266C155.751 100.694 155.812 100.2 155.933 99.784C156.072 99.3507 156.289 99.0127 156.583 98.77C156.878 98.5273 157.259 98.406 157.727 98.406C158.074 98.406 158.36 98.458 158.585 98.562C158.811 98.666 159.053 98.822 159.313 99.03ZM167.411 108.26C168.798 108.26 169.985 107.991 170.973 107.454C171.961 106.917 172.767 106.111 173.391 105.036L170.973 104.048C170.592 104.689 170.115 105.166 169.543 105.478C168.971 105.79 168.304 105.946 167.541 105.946C166.813 105.946 166.189 105.79 165.669 105.478C165.167 105.166 164.785 104.715 164.525 104.126C164.265 103.519 164.135 102.783 164.135 101.916C164.153 101.049 164.291 100.321 164.551 99.732C164.811 99.1427 165.193 98.692 165.695 98.38C166.198 98.068 166.805 97.912 167.515 97.912C168.105 97.912 168.616 98.042 169.049 98.302C169.5 98.562 169.847 98.926 170.089 99.394C170.349 99.862 170.479 100.417 170.479 101.058C170.479 101.179 170.445 101.335 170.375 101.526C170.323 101.699 170.271 101.838 170.219 101.942L171.077 100.746H162.965V102.67H173.469C173.487 102.601 173.495 102.488 173.495 102.332C173.513 102.176 173.521 102.029 173.521 101.89C173.521 100.607 173.279 99.5153 172.793 98.614C172.325 97.6953 171.649 96.9933 170.765 96.508C169.881 96.0227 168.807 95.78 167.541 95.78C166.276 95.78 165.175 96.04 164.239 96.56C163.303 97.0627 162.575 97.782 162.055 98.718C161.553 99.654 161.301 100.755 161.301 102.02C161.301 103.268 161.553 104.36 162.055 105.296C162.558 106.232 163.269 106.96 164.187 107.48C165.123 108 166.198 108.26 167.411 108.26ZM43.722 134.924L49.26 144.31L54.798 134.924L56.072 146H59.244L56.748 126.89L49.26 139.24L41.798 126.89L39.302 146H42.474L43.722 134.924ZM61.0847 140.02C61.0847 141.233 61.362 142.317 61.9167 143.27C62.4887 144.206 63.26 144.943 64.2307 145.48C65.2014 146 66.302 146.26 67.5327 146.26C68.7634 146.26 69.8554 146 70.8087 145.48C71.7794 144.943 72.5507 144.206 73.1227 143.27C73.6947 142.317 73.9807 141.233 73.9807 140.02C73.9807 138.789 73.6947 137.706 73.1227 136.77C72.5507 135.834 71.7794 135.106 70.8087 134.586C69.8554 134.049 68.7634 133.78 67.5327 133.78C66.302 133.78 65.2014 134.049 64.2307 134.586C63.26 135.106 62.4887 135.834 61.9167 136.77C61.362 137.706 61.0847 138.789 61.0847 140.02ZM63.9707 140.02C63.9707 139.275 64.1267 138.616 64.4387 138.044C64.7507 137.472 65.1754 137.03 65.7127 136.718C66.25 136.406 66.8567 136.25 67.5327 136.25C68.1914 136.25 68.7894 136.406 69.3267 136.718C69.8814 137.03 70.3147 137.472 70.6267 138.044C70.9387 138.616 71.0947 139.275 71.0947 140.02C71.0947 140.765 70.9387 141.424 70.6267 141.996C70.3147 142.551 69.8814 142.993 69.3267 143.322C68.7894 143.634 68.1914 143.79 67.5327 143.79C66.8567 143.79 66.25 143.634 65.7127 143.322C65.1754 142.993 64.7507 142.551 64.4387 141.996C64.1267 141.424 63.9707 140.765 63.9707 140.02ZM84.3411 138.72V146H87.2271V138.408C87.2271 136.969 86.8717 135.843 86.1611 135.028C85.4504 134.196 84.4191 133.78 83.0671 133.78C82.2351 133.78 81.5157 133.953 80.9091 134.3C80.3197 134.647 79.8344 135.175 79.4531 135.886V134.04H76.6451V146H79.4531V138.72C79.4531 138.183 79.5657 137.715 79.7911 137.316C80.0164 136.9 80.3284 136.588 80.7271 136.38C81.1257 136.155 81.5851 136.042 82.1051 136.042C82.8677 136.042 83.4311 136.267 83.7951 136.718C84.1591 137.169 84.3411 137.836 84.3411 138.72ZM90.709 129.282C90.709 129.75 90.8824 130.157 91.229 130.504C91.593 130.833 92.009 130.998 92.477 130.998C92.9797 130.998 93.3957 130.833 93.725 130.504C94.0717 130.157 94.245 129.75 94.245 129.282C94.245 128.797 94.0717 128.389 93.725 128.06C93.3957 127.731 92.9797 127.566 92.477 127.566C92.009 127.566 91.593 127.731 91.229 128.06C90.8824 128.389 90.709 128.797 90.709 129.282ZM91.099 134.04V146H93.855V134.04H91.099ZM96.0553 134.04V136.51H102.841V134.04H96.0553ZM98.0573 129.88V146H100.839V129.88H98.0573ZM103.868 140.02C103.868 141.233 104.145 142.317 104.7 143.27C105.272 144.206 106.043 144.943 107.014 145.48C107.985 146 109.085 146.26 110.316 146.26C111.547 146.26 112.639 146 113.592 145.48C114.563 144.943 115.334 144.206 115.906 143.27C116.478 142.317 116.764 141.233 116.764 140.02C116.764 138.789 116.478 137.706 115.906 136.77C115.334 135.834 114.563 135.106 113.592 134.586C112.639 134.049 111.547 133.78 110.316 133.78C109.085 133.78 107.985 134.049 107.014 134.586C106.043 135.106 105.272 135.834 104.7 136.77C104.145 137.706 103.868 138.789 103.868 140.02ZM106.754 140.02C106.754 139.275 106.91 138.616 107.222 138.044C107.534 137.472 107.959 137.03 108.496 136.718C109.033 136.406 109.64 136.25 110.316 136.25C110.975 136.25 111.573 136.406 112.11 136.718C112.665 137.03 113.098 137.472 113.41 138.044C113.722 138.616 113.878 139.275 113.878 140.02C113.878 140.765 113.722 141.424 113.41 141.996C113.098 142.551 112.665 142.993 112.11 143.322C111.573 143.634 110.975 143.79 110.316 143.79C109.64 143.79 109.033 143.634 108.496 143.322C107.959 142.993 107.534 142.551 107.222 141.996C106.91 141.424 106.754 140.765 106.754 140.02ZM122.21 134.04H119.428V146H122.21V134.04ZM125.772 137.03L127.124 134.664C126.864 134.335 126.544 134.109 126.162 133.988C125.781 133.849 125.374 133.78 124.94 133.78C124.334 133.78 123.744 133.997 123.172 134.43C122.618 134.863 122.158 135.453 121.794 136.198C121.448 136.926 121.274 137.767 121.274 138.72L122.21 139.266C122.21 138.694 122.271 138.2 122.392 137.784C122.531 137.351 122.748 137.013 123.042 136.77C123.337 136.527 123.718 136.406 124.186 136.406C124.533 136.406 124.819 136.458 125.044 136.562C125.27 136.666 125.512 136.822 125.772 137.03Z" fill="#041E42"/>
<g filter="url(#filter0_d_1_1115)">
<path d="M40.5524 175.625L39.2324 176.54C39.4624 177.02 39.7724 177.465 40.1624 177.875C40.5524 178.285 41.0074 178.615 41.5274 178.865C42.0574 179.105 42.6324 179.225 43.2524 179.225C43.7024 179.225 44.1324 179.15 44.5424 179C44.9624 178.86 45.3374 178.66 45.6674 178.4C45.9974 178.13 46.2574 177.8 46.4474 177.41C46.6374 177.02 46.7324 176.58 46.7324 176.09C46.7324 175.63 46.6524 175.23 46.4924 174.89C46.3424 174.55 46.1374 174.255 45.8774 174.005C45.6174 173.745 45.3274 173.53 45.0074 173.36C44.6974 173.19 44.3874 173.05 44.0774 172.94C43.5174 172.74 43.0624 172.545 42.7124 172.355C42.3624 172.165 42.1024 171.965 41.9324 171.755C41.7724 171.535 41.6924 171.29 41.6924 171.02C41.6924 170.72 41.8074 170.46 42.0374 170.24C42.2674 170.01 42.6274 169.895 43.1174 169.895C43.4674 169.895 43.7724 169.965 44.0324 170.105C44.3024 170.235 44.5374 170.415 44.7374 170.645C44.9374 170.865 45.1024 171.105 45.2324 171.365L46.6724 170.555C46.4924 170.185 46.2424 169.83 45.9224 169.49C45.6124 169.15 45.2274 168.87 44.7674 168.65C44.3074 168.43 43.7674 168.32 43.1474 168.32C42.5174 168.32 41.9524 168.44 41.4524 168.68C40.9624 168.91 40.5724 169.24 40.2824 169.67C39.9924 170.09 39.8474 170.58 39.8474 171.14C39.8474 171.63 39.9424 172.05 40.1324 172.4C40.3224 172.74 40.5624 173.03 40.8524 173.27C41.1424 173.5 41.4474 173.695 41.7674 173.855C42.0874 174.005 42.3774 174.125 42.6374 174.215C43.0774 174.375 43.4624 174.54 43.7924 174.71C44.1324 174.87 44.3974 175.07 44.5874 175.31C44.7774 175.54 44.8724 175.85 44.8724 176.24C44.8724 176.65 44.7224 176.985 44.4224 177.245C44.1224 177.505 43.7324 177.635 43.2524 177.635C42.8524 177.635 42.4924 177.555 42.1724 177.395C41.8524 177.225 41.5574 176.99 41.2874 176.69C41.0274 176.38 40.7824 176.025 40.5524 175.625ZM50.0339 167.3H48.4139V179H50.0339V167.3ZM52.8539 174.8V179H54.4889V174.575C54.4889 173.985 54.3989 173.495 54.2189 173.105C54.0389 172.705 53.7689 172.405 53.4089 172.205C53.0589 172.005 52.6289 171.905 52.1189 171.905C51.5989 171.905 51.1539 172.035 50.7839 172.295C50.4239 172.555 50.1439 172.9 49.9439 173.33C49.7439 173.76 49.6439 174.25 49.6439 174.8H50.0339C50.0339 174.49 50.0989 174.22 50.2289 173.99C50.3589 173.76 50.5389 173.58 50.7689 173.45C50.9989 173.32 51.2639 173.255 51.5639 173.255C52.0139 173.255 52.3389 173.385 52.5389 173.645C52.7489 173.905 52.8539 174.29 52.8539 174.8ZM56.0188 175.55C56.0188 176.25 56.1788 176.875 56.4988 177.425C56.8288 177.965 57.2738 178.39 57.8338 178.7C58.3938 179 59.0288 179.15 59.7388 179.15C60.4488 179.15 61.0788 179 61.6288 178.7C62.1888 178.39 62.6338 177.965 62.9638 177.425C63.2938 176.875 63.4588 176.25 63.4588 175.55C63.4588 174.84 63.2938 174.215 62.9638 173.675C62.6338 173.135 62.1888 172.715 61.6288 172.415C61.0788 172.105 60.4488 171.95 59.7388 171.95C59.0288 171.95 58.3938 172.105 57.8338 172.415C57.2738 172.715 56.8288 173.135 56.4988 173.675C56.1788 174.215 56.0188 174.84 56.0188 175.55ZM57.6838 175.55C57.6838 175.12 57.7738 174.74 57.9538 174.41C58.1338 174.08 58.3788 173.825 58.6888 173.645C58.9988 173.465 59.3488 173.375 59.7388 173.375C60.1188 173.375 60.4638 173.465 60.7738 173.645C61.0938 173.825 61.3438 174.08 61.5238 174.41C61.7038 174.74 61.7938 175.12 61.7938 175.55C61.7938 175.98 61.7038 176.36 61.5238 176.69C61.3438 177.01 61.0938 177.265 60.7738 177.455C60.4638 177.635 60.1188 177.725 59.7388 177.725C59.3488 177.725 58.9988 177.635 58.6888 177.455C58.3788 177.265 58.1338 177.01 57.9538 176.69C57.7738 176.36 57.6838 175.98 57.6838 175.55ZM66.5709 182.3V172.1H64.9359V182.3H66.5709ZM72.2859 175.55C72.2859 174.78 72.1309 174.125 71.8209 173.585C71.5109 173.045 71.1009 172.635 70.5909 172.355C70.0809 172.065 69.5259 171.92 68.9259 171.92C68.3359 171.92 67.8209 172.07 67.3809 172.37C66.9509 172.66 66.6159 173.075 66.3759 173.615C66.1459 174.155 66.0309 174.8 66.0309 175.55C66.0309 176.29 66.1459 176.935 66.3759 177.485C66.6159 178.025 66.9509 178.445 67.3809 178.745C67.8209 179.035 68.3359 179.18 68.9259 179.18C69.5259 179.18 70.0809 179.04 70.5909 178.76C71.1009 178.47 71.5109 178.055 71.8209 177.515C72.1309 176.965 72.2859 176.31 72.2859 175.55ZM70.6059 175.55C70.6059 176.01 70.5109 176.405 70.3209 176.735C70.1309 177.055 69.8759 177.3 69.5559 177.47C69.2459 177.63 68.9009 177.71 68.5209 177.71C68.2109 177.71 67.9059 177.63 67.6059 177.47C67.3059 177.3 67.0559 177.055 66.8559 176.735C66.6659 176.415 66.5709 176.02 66.5709 175.55C66.5709 175.08 66.6659 174.685 66.8559 174.365C67.0559 174.045 67.3059 173.805 67.6059 173.645C67.9059 173.475 68.2109 173.39 68.5209 173.39C68.9009 173.39 69.2459 173.475 69.5559 173.645C69.8759 173.805 70.1309 174.05 70.3209 174.38C70.5109 174.7 70.6059 175.09 70.6059 175.55ZM86.126 168.5V175.55L78.461 167.975V179H80.201V171.95L87.866 179.525V168.5H86.126ZM89.5344 175.55C89.5344 176.25 89.6944 176.875 90.0144 177.425C90.3444 177.965 90.7894 178.39 91.3494 178.7C91.9094 179 92.5444 179.15 93.2544 179.15C93.9644 179.15 94.5944 179 95.1444 178.7C95.7044 178.39 96.1494 177.965 96.4794 177.425C96.8094 176.875 96.9744 176.25 96.9744 175.55C96.9744 174.84 96.8094 174.215 96.4794 173.675C96.1494 173.135 95.7044 172.715 95.1444 172.415C94.5944 172.105 93.9644 171.95 93.2544 171.95C92.5444 171.95 91.9094 172.105 91.3494 172.415C90.7894 172.715 90.3444 173.135 90.0144 173.675C89.6944 174.215 89.5344 174.84 89.5344 175.55ZM91.1994 175.55C91.1994 175.12 91.2894 174.74 91.4694 174.41C91.6494 174.08 91.8944 173.825 92.2044 173.645C92.5144 173.465 92.8644 173.375 93.2544 173.375C93.6344 173.375 93.9794 173.465 94.2894 173.645C94.6094 173.825 94.8594 174.08 95.0394 174.41C95.2194 174.74 95.3094 175.12 95.3094 175.55C95.3094 175.98 95.2194 176.36 95.0394 176.69C94.8594 177.01 94.6094 177.265 94.2894 177.455C93.9794 177.635 93.6344 177.725 93.2544 177.725C92.8644 177.725 92.5144 177.635 92.2044 177.455C91.8944 177.265 91.6494 177.01 91.4694 176.69C91.2894 176.36 91.1994 175.98 91.1994 175.55ZM97.2568 172.1L100.482 179.495L102.552 174.83L104.712 179.495L107.937 172.1H106.182L104.562 176.225L102.537 171.575L100.632 176.21L99.0118 172.1H97.2568Z" fill="#041E42"/>
<rect x="38.314" y="188" width="32" height="2" fill="#041E42"/>
</g>
<defs>
<filter id="filter0_d_1_1115" x="18.314" y="148" width="162.303" height="67" filterUnits="userSpaceOnUse" color-interpolation-filters="sRGB">
<feFlood flood-opacity="0" result="BackgroundImageFix"/>
<feColorMatrix in="SourceAlpha" type="matrix" values="0 0 0 0 0 0 0 0 0 0 0 0 0 0 0 0 0 0 127 0" result="hardAlpha"/>
<feOffset dy="5"/>
<feGaussianBlur stdDeviation="10"/>
<feComposite in2="hardAlpha" operator="out"/>
<feColorMatrix type="matrix" values="0 0 0 0 0.960784 0 0 0 0 0.764706 0 0 0 0 0.294118 0 0 0 0.15 0"/>
<feBlend mode="normal" in2="BackgroundImageFix" result="effect1_dropShadow_1_1115"/>
<feBlend mode="normal" in="SourceGraphic" in2="effect1_dropShadow_1_1115" result="shape"/>
</filter>
</defs>
</svg>
