<svg width="39" height="25" viewBox="0 0 39 25" fill="none" xmlns="http://www.w3.org/2000/svg">
<g clip-path="url(#clip0_1_768)">
<path d="M35.1919 0.526367H3.87984C2.21639 0.526367 0.944336 1.82637 0.944336 3.52637V21.5264C0.944336 23.2264 2.31424 24.5264 3.87984 24.5264H35.1919C36.8554 24.5264 38.1274 23.2264 38.1274 21.5264V3.52637C38.1274 1.82637 36.7575 0.526367 35.1919 0.526367Z" fill="#F3F5F6"/>
<path d="M35.1919 1.52637C36.2683 1.52637 37.1489 2.42637 37.1489 3.52637V21.5264C37.1489 22.6264 36.2683 23.5264 35.1919 23.5264H3.87986C2.8035 23.5264 1.92285 22.6264 1.92285 21.5264V3.52637C1.92285 2.42637 2.8035 1.52637 3.87986 1.52637H35.1919Z" fill="white"/>
<path d="M15.622 19.5264C19.4049 19.5264 22.4715 16.3924 22.4715 12.5264C22.4715 8.66037 19.4049 5.52637 15.622 5.52637C11.8391 5.52637 8.77246 8.66037 8.77246 12.5264C8.77246 16.3924 11.8391 19.5264 15.622 19.5264Z" fill="#EB001B"/>
<path d="M23.4501 19.5264C27.233 19.5264 30.2996 16.3924 30.2996 12.5264C30.2996 8.66037 27.233 5.52637 23.4501 5.52637C19.6672 5.52637 16.6006 8.66037 16.6006 12.5264C16.6006 16.3924 19.6672 19.5264 23.4501 19.5264Z" fill="#F79E1B"/>
<path d="M22.4716 12.5262C22.4716 10.1262 21.2974 8.02617 19.5361 6.82617C17.7748 8.12617 16.6006 10.2262 16.6006 12.5262C16.6006 14.8262 17.7748 17.0262 19.5361 18.2262C21.2974 17.0262 22.4716 14.9262 22.4716 12.5262Z" fill="#FF5F00"/>
</g>
<defs>
<clipPath id="clip0_1_768">
<rect width="37.1831" height="24" fill="white" transform="translate(0.944336 0.526367)"/>
</clipPath>
</defs>
</svg>
