<svg width="39" height="25" viewBox="0 0 39 25" fill="none" xmlns="http://www.w3.org/2000/svg">
<g clip-path="url(#clip0_1_785)">
<path d="M35.128 0.526367H3.81588C2.15242 0.526367 0.880371 1.82637 0.880371 3.52637V21.5264C0.880371 23.2264 2.25027 24.5264 3.81588 24.5264H35.128C36.7914 24.5264 38.0635 23.2264 38.0635 21.5264V3.52637C38.0635 1.82637 36.6936 0.526367 35.128 0.526367Z" fill="#F3F5F6"/>
<path d="M35.128 1.52637C36.2043 1.52637 37.085 2.42637 37.085 3.52637V21.5264C37.085 22.6264 36.2043 23.5264 35.128 23.5264H3.81589C2.73954 23.5264 1.85889 22.6264 1.85889 21.5264V3.52637C1.85889 2.42637 2.73954 1.52637 3.81589 1.52637H35.128Z" fill="white"/>
<path d="M4.37365 7.68641H2.8374V13.1864H4.37365C5.18581 13.1864 5.77291 12.9864 6.29152 12.5564C6.90797 12.0364 7.27002 11.2564 7.27002 10.4464C7.26023 8.81641 6.07625 7.68641 4.37365 7.68641ZM5.60656 11.8264C5.27387 12.1264 4.85312 12.2664 4.16817 12.2664H3.8844V8.62641H4.16817C4.84333 8.62641 5.2543 8.74641 5.60656 9.06641C5.96861 9.39641 6.18388 9.90641 6.18388 10.4364C6.18388 10.9664 5.96861 11.4964 5.60656 11.8264ZM7.74949 7.68641H8.79648V13.1864H7.74949V7.68641ZM11.3602 9.79641C10.7339 9.55641 10.548 9.39641 10.548 9.10641C10.548 8.75641 10.8807 8.49641 11.3308 8.49641C11.6439 8.49641 11.9081 8.62641 12.1723 8.94641L12.7203 8.21641C12.2702 7.81641 11.732 7.60641 11.1351 7.60641C10.186 7.60641 9.45208 8.28641 9.45208 9.18641C9.45208 9.94641 9.79455 10.3364 10.7731 10.6964C11.184 10.8464 11.3895 10.9464 11.4972 11.0064C11.7026 11.1464 11.8103 11.3464 11.8103 11.5764C11.8103 12.0264 11.4678 12.3564 10.9981 12.3564C10.4991 12.3564 10.0979 12.0964 9.85327 11.6264L9.1781 12.2964C9.65756 13.0264 10.2447 13.3464 11.0373 13.3464C12.1234 13.3464 12.8964 12.6064 12.8964 11.5364C12.916 10.6464 12.5539 10.2464 11.3602 9.79641ZM13.2389 10.4464C13.2389 12.0664 14.4816 13.3164 16.0765 13.3164C16.5267 13.3164 16.9181 13.2264 17.3877 12.9964V11.7364C16.967 12.1664 16.5951 12.3364 16.1255 12.3364C15.0687 12.3364 14.3152 11.5564 14.3152 10.4364C14.3152 9.37641 15.0883 8.54641 16.0765 8.54641C16.5756 8.54641 16.9572 8.72641 17.3877 9.16641V7.90641C16.9278 7.66641 16.5462 7.56641 16.0961 7.56641C14.5207 7.56641 13.2389 8.84641 13.2389 10.4464ZM25.7246 11.3864L24.2862 7.68641H23.1413L25.4212 13.3264H25.9888L28.3078 7.68641H27.1728L25.7246 11.3864ZM28.7873 13.1864H31.7619V12.2564H29.8343V10.7764H31.6934V9.84641H29.8343V8.62641H31.7619V7.68641H28.7873V13.1864ZM35.9206 9.31641C35.9206 8.28641 35.2258 7.69641 34.0125 7.69641H32.4567V13.1964H33.5037V10.9864H33.6407L35.0888 13.1964H36.3805L34.6877 10.8764C35.4802 10.7064 35.9206 10.1564 35.9206 9.31641ZM33.807 10.2264H33.5037V8.55641H33.8266C34.4822 8.55641 34.8344 8.83641 34.8344 9.37641C34.8344 9.92641 34.4822 10.2264 33.807 10.2264Z" fill="#231F20"/>
<path d="M20.6068 13.3864C21.3674 13.3864 22.0969 13.0776 22.6347 12.5279C23.1726 11.9783 23.4748 11.2328 23.4748 10.4554C23.4748 9.67806 23.1726 8.93255 22.6347 8.38288C22.0969 7.83321 21.3674 7.52441 20.6068 7.52441C19.8461 7.52441 19.1166 7.83321 18.5788 8.38288C18.0409 8.93255 17.7388 9.67806 17.7388 10.4554C17.7388 11.2328 18.0409 11.9783 18.5788 12.5279C19.1166 13.0776 19.8461 13.3864 20.6068 13.3864Z" fill="url(#paint0_linear_1_785)"/>
<path opacity="0.65" d="M20.6068 13.3864C21.3674 13.3864 22.0969 13.0776 22.6347 12.5279C23.1726 11.9783 23.4748 11.2328 23.4748 10.4554C23.4748 9.67806 23.1726 8.93255 22.6347 8.38288C22.0969 7.83321 21.3674 7.52441 20.6068 7.52441C19.8461 7.52441 19.1166 7.83321 18.5788 8.38288C18.0409 8.93255 17.7388 9.67806 17.7388 10.4554C17.7388 11.2328 18.0409 11.9783 18.5788 12.5279C19.1166 13.0776 19.8461 13.3864 20.6068 13.3864Z" fill="url(#paint1_linear_1_785)"/>
<path d="M36.6642 8.03281C36.6642 7.93281 36.5957 7.88281 36.4881 7.88281H36.3315V8.36281H36.449V8.17281L36.586 8.36281H36.7229L36.5664 8.16281C36.6251 8.15281 36.6642 8.10281 36.6642 8.03281ZM36.4685 8.10281H36.449V7.97281H36.4685C36.5272 7.97281 36.5566 7.99281 36.5566 8.03281C36.5566 8.08281 36.5272 8.10281 36.4685 8.10281Z" fill="#231F20"/>
<path d="M36.5076 7.70215C36.2826 7.70215 36.0967 7.89215 36.0967 8.12215C36.0967 8.35215 36.2826 8.54215 36.5076 8.54215C36.7327 8.54215 36.9186 8.35215 36.9186 8.12215C36.9186 7.89215 36.7327 7.70215 36.5076 7.70215ZM36.5076 8.47215C36.3315 8.47215 36.175 8.32215 36.175 8.12215C36.175 7.93215 36.3217 7.77215 36.5076 7.77215C36.6838 7.77215 36.8306 7.93215 36.8306 8.12215C36.8306 8.31215 36.6838 8.47215 36.5076 8.47215Z" fill="#231F20"/>
<path d="M37.0851 13.5107C37.0851 13.5107 27.3882 20.3997 9.66357 23.5267H35.1271C35.6435 23.5268 36.1389 23.3182 36.5055 22.9466C36.872 22.575 37.08 22.0704 37.0842 21.5427L37.1076 18.5227L37.0851 13.5117V13.5107Z" fill="#F48120"/>
</g>
<defs>
<linearGradient id="paint0_linear_1_785" x1="22.0716" y1="12.8014" x2="20.0284" y2="9.6707" gradientUnits="userSpaceOnUse">
<stop stop-color="#F89F20"/>
<stop offset="0.25" stop-color="#F79A20"/>
<stop offset="0.533" stop-color="#F68D20"/>
<stop offset="0.62" stop-color="#F58720"/>
<stop offset="0.723" stop-color="#F48120"/>
<stop offset="1" stop-color="#F37521"/>
</linearGradient>
<linearGradient id="paint1_linear_1_785" x1="21.7594" y1="12.7584" x2="18.762" y2="7.02524" gradientUnits="userSpaceOnUse">
<stop stop-color="#F58720"/>
<stop offset="0.359" stop-color="#E16F27"/>
<stop offset="0.703" stop-color="#D4602C"/>
<stop offset="0.982" stop-color="#D05B2E"/>
</linearGradient>
<clipPath id="clip0_1_785">
<rect width="37.1831" height="24" fill="white" transform="translate(0.880371 0.526367)"/>
</clipPath>
</defs>
</svg>
