<svg width="38" height="25" viewBox="0 0 38 25" fill="none" xmlns="http://www.w3.org/2000/svg">
<path d="M35.0645 0.526367H3.7524C2.08895 0.526367 0.816895 1.82637 0.816895 3.52637V21.5264C0.816895 23.2264 2.1868 24.5264 3.7524 24.5264H35.0645C36.7279 24.5264 38 23.2264 38 21.5264V3.52637C38 1.82637 36.6301 0.526367 35.0645 0.526367Z" fill="#F3F5F6"/>
<path d="M35.0645 1.52637C36.1409 1.52637 37.0215 2.42637 37.0215 3.52637V21.5264C37.0215 22.6264 36.1409 23.5264 35.0645 23.5264H3.75242C2.67606 23.5264 1.79541 22.6264 1.79541 21.5264V3.52637C1.79541 2.42637 2.67606 1.52637 3.75242 1.52637H35.0645Z" fill="#006FCF"/>
<path d="M9.59509 10.7944L10.3525 12.6704H8.8436L9.59509 10.7944ZM25.3245 10.8724H22.4115V11.6994H25.2776V12.9384H22.4174V13.8604H25.3304V14.5994L27.3627 12.3544L25.3304 10.0144L25.3245 10.8724ZM11.5638 8.53237H15.473L16.3409 10.4674L17.1452 8.52637H27.2923L28.3471 9.71637L29.4381 8.52637H34.0988L30.6554 12.3784L34.0635 16.2064H29.3334L28.2786 15.0164L27.1778 16.2064H10.6313L10.1479 15.0164H9.04224L8.55788 16.2064H4.73096L7.94632 8.52637H11.3026L11.5638 8.53237ZM20.0406 9.61037H17.8497L16.382 13.1464L14.7919 9.61037H12.6177V14.4204L10.602 9.61037H8.65182L6.32102 15.1224H7.8426L8.32598 13.9324H10.8662L11.3495 15.1224H14.0111V11.1874L15.7244 15.1284H16.8889L18.5914 11.1994V15.1294H20.0181L20.0416 9.60937L20.0406 9.61037ZM29.1798 12.3784L31.6564 9.61037H29.8736L28.307 11.3364L26.7923 9.61037H21.025V15.1284H26.7101L28.2894 13.3904L29.8041 15.1284H31.6388L29.1808 12.3784H29.1798Z" fill="white"/>
</svg>
