<svg width="130" height="52" viewBox="0 0 130 52" fill="none" xmlns="http://www.w3.org/2000/svg">
<path d="M75.1541 17.7552L77.5201 11.0602H78.7551L75.1801 20.6152L72.4501 13.5432L69.7201 20.6152L66.1451 11.0602H67.3801L69.7981 17.7552L72.4501 10.6052L75.1541 17.7552ZM79.8632 11.7102C79.8632 11.5108 79.9325 11.3418 80.0712 11.2032C80.2185 11.0645 80.3875 10.9952 80.5782 10.9952C80.7775 10.9952 80.9465 11.0645 81.0852 11.2032C81.2239 11.3418 81.2932 11.5108 81.2932 11.7102C81.2932 11.9008 81.2239 12.0698 81.0852 12.2172C80.9465 12.3558 80.7775 12.4252 80.5782 12.4252C80.3875 12.4252 80.2185 12.3558 80.0712 12.2172C79.9325 12.0698 79.8632 11.9008 79.8632 11.7102ZM80.0582 14.1802H81.0982V20.1602H80.0582V14.1802ZM83.4871 18.3272C83.6085 18.5092 83.7471 18.6782 83.9031 18.8342C84.0591 18.9902 84.2368 19.1158 84.4361 19.2112C84.6441 19.2978 84.8695 19.3412 85.1121 19.3412C85.4068 19.3412 85.6365 19.2762 85.8011 19.1462C85.9745 19.0075 86.0611 18.8212 86.0611 18.5872C86.0611 18.3792 85.9918 18.2058 85.8531 18.0672C85.7231 17.9198 85.5541 17.7985 85.3461 17.7032C85.1381 17.5992 84.9171 17.5038 84.6831 17.4172C84.4231 17.3132 84.1588 17.1918 83.8901 17.0532C83.6301 16.9058 83.4091 16.7195 83.2271 16.4942C83.0538 16.2602 82.9671 15.9698 82.9671 15.6232C82.9671 15.2678 83.0581 14.9732 83.2401 14.7392C83.4308 14.5052 83.6735 14.3318 83.9681 14.2192C84.2715 14.1065 84.5835 14.0502 84.9041 14.0502C85.2248 14.0502 85.5238 14.1022 85.8011 14.2062C86.0871 14.3102 86.3385 14.4488 86.5551 14.6222C86.7718 14.7955 86.9408 14.9948 87.0621 15.2202L86.2301 15.7532C86.0655 15.5278 85.8575 15.3415 85.6061 15.1942C85.3635 15.0468 85.0861 14.9732 84.7741 14.9732C84.5575 14.9732 84.3711 15.0208 84.2151 15.1162C84.0591 15.2115 83.9811 15.3588 83.9811 15.5582C83.9811 15.7142 84.0418 15.8528 84.1631 15.9742C84.2845 16.0955 84.4405 16.2038 84.6311 16.2992C84.8218 16.3945 85.0211 16.4855 85.2291 16.5722C85.5758 16.7108 85.8921 16.8625 86.1781 17.0272C86.4641 17.1832 86.6895 17.3738 86.8541 17.5992C87.0275 17.8245 87.1141 18.1148 87.1141 18.4702C87.1141 18.9902 86.9235 19.4235 86.5421 19.7702C86.1695 20.1168 85.6755 20.2902 85.0601 20.2902C84.6615 20.2902 84.3018 20.2208 83.9811 20.0822C83.6605 19.9348 83.3875 19.7485 83.1621 19.5232C82.9455 19.2978 82.7808 19.0682 82.6681 18.8342L83.4871 18.3272ZM89.5233 10.0202V20.1602H88.4833V10.0202H89.5233ZM92.3183 16.5202C92.3183 16.0262 92.21 15.6535 91.9933 15.4022C91.7853 15.1508 91.469 15.0252 91.0443 15.0252C90.741 15.0252 90.4723 15.0902 90.2383 15.2202C90.013 15.3502 89.8353 15.5278 89.7053 15.7532C89.584 15.9785 89.5233 16.2342 89.5233 16.5202H89.1853C89.1853 16.0435 89.2763 15.6232 89.4583 15.2592C89.6403 14.8865 89.8873 14.5918 90.1993 14.3752C90.52 14.1585 90.8883 14.0502 91.3043 14.0502C91.7203 14.0502 92.08 14.1368 92.3833 14.3102C92.6953 14.4835 92.9336 14.7435 93.0983 15.0902C93.2716 15.4368 93.3583 15.8702 93.3583 16.3902V20.1602H92.3183V16.5202ZM95.3134 10.0202H96.3534V20.1602H95.3134V10.0202ZM98.3095 11.7102C98.3095 11.5108 98.3788 11.3418 98.5175 11.2032C98.6648 11.0645 98.8338 10.9952 99.0245 10.9952C99.2238 10.9952 99.3928 11.0645 99.5315 11.2032C99.6701 11.3418 99.7395 11.5108 99.7395 11.7102C99.7395 11.9008 99.6701 12.0698 99.5315 12.2172C99.3928 12.3558 99.2238 12.4252 99.0245 12.4252C98.8338 12.4252 98.6648 12.3558 98.5175 12.2172C98.3788 12.0698 98.3095 11.9008 98.3095 11.7102ZM98.5045 14.1802H99.5445V20.1602H98.5045V14.1802ZM101.933 18.3272C102.055 18.5092 102.193 18.6782 102.349 18.8342C102.505 18.9902 102.683 19.1158 102.882 19.2112C103.09 19.2978 103.316 19.3412 103.558 19.3412C103.853 19.3412 104.083 19.2762 104.247 19.1462C104.421 19.0075 104.507 18.8212 104.507 18.5872C104.507 18.3792 104.438 18.2058 104.299 18.0672C104.169 17.9198 104 17.7985 103.792 17.7032C103.584 17.5992 103.363 17.5038 103.129 17.4172C102.869 17.3132 102.605 17.1918 102.336 17.0532C102.076 16.9058 101.855 16.7195 101.673 16.4942C101.5 16.2602 101.413 15.9698 101.413 15.6232C101.413 15.2678 101.504 14.9732 101.686 14.7392C101.877 14.5052 102.12 14.3318 102.414 14.2192C102.718 14.1065 103.03 14.0502 103.35 14.0502C103.671 14.0502 103.97 14.1022 104.247 14.2062C104.533 14.3102 104.785 14.4488 105.001 14.6222C105.218 14.7955 105.387 14.9948 105.508 15.2202L104.676 15.7532C104.512 15.5278 104.304 15.3415 104.052 15.1942C103.81 15.0468 103.532 14.9732 103.22 14.9732C103.004 14.9732 102.817 15.0208 102.661 15.1162C102.505 15.2115 102.427 15.3588 102.427 15.5582C102.427 15.7142 102.488 15.8528 102.609 15.9742C102.731 16.0955 102.887 16.2038 103.077 16.2992C103.268 16.3945 103.467 16.4855 103.675 16.5722C104.022 16.7108 104.338 16.8625 104.624 17.0272C104.91 17.1832 105.136 17.3738 105.3 17.5992C105.474 17.8245 105.56 18.1148 105.56 18.4702C105.56 18.9902 105.37 19.4235 104.988 19.7702C104.616 20.1168 104.122 20.2902 103.506 20.2902C103.108 20.2902 102.748 20.2208 102.427 20.0822C102.107 19.9348 101.834 19.7485 101.608 19.5232C101.392 19.2978 101.227 19.0682 101.114 18.8342L101.933 18.3272ZM106.02 14.1802H109.01V15.1552H106.02V14.1802ZM106.995 12.1002H108.035V20.1602H106.995V12.1002ZM69.3431 35.3442L68.5751 42.1602H66.6231L68.1591 30.4002L72.7511 38.0002L77.3591 30.4002L78.8951 42.1602H76.9431L76.1591 35.3442L72.7511 41.1202L69.3431 35.3442ZM87.0999 34.8002L82.2999 45.6802H80.4599L82.3799 41.2962L79.4199 34.8002H81.4039L83.7559 40.6242L82.9399 40.5762L85.2439 34.8002H87.0999ZM93.0756 30.9602H94.9796V42.1602H93.0756V30.9602ZM96.3139 34.8002H100.49V36.3202H96.3139V34.8002ZM97.5459 32.2402H99.2579V42.1602H97.5459V32.2402ZM104.882 42.3202C104.135 42.3202 103.474 42.1602 102.898 41.8402C102.332 41.5202 101.895 41.0722 101.586 40.4962C101.276 39.9202 101.122 39.2482 101.122 38.4802C101.122 37.7015 101.276 37.0242 101.586 36.4482C101.906 35.8722 102.354 35.4295 102.93 35.1202C103.506 34.8002 104.183 34.6402 104.962 34.6402C105.74 34.6402 106.402 34.7895 106.946 35.0882C107.49 35.3868 107.906 35.8188 108.194 36.3842C108.492 36.9388 108.642 37.6108 108.642 38.4002C108.642 38.4855 108.636 38.5762 108.626 38.6722C108.626 38.7682 108.62 38.8375 108.61 38.8802H102.146V37.6962H107.138L106.61 38.4322C106.642 38.3682 106.674 38.2828 106.706 38.1762C106.748 38.0588 106.77 37.9628 106.77 37.8882C106.77 37.4935 106.69 37.1522 106.53 36.8642C106.38 36.5762 106.167 36.3522 105.89 36.1922C105.623 36.0322 105.308 35.9522 104.946 35.9522C104.508 35.9522 104.135 36.0482 103.826 36.2402C103.516 36.4322 103.282 36.7095 103.122 37.0722C102.962 37.4348 102.876 37.8828 102.866 38.4162C102.866 38.9495 102.946 39.4028 103.106 39.7762C103.266 40.1388 103.5 40.4162 103.81 40.6082C104.13 40.8002 104.514 40.8962 104.962 40.8962C105.431 40.8962 105.842 40.8002 106.194 40.6082C106.546 40.4162 106.839 40.1228 107.074 39.7282L108.562 40.3362C108.178 40.9975 107.682 41.4935 107.074 41.8242C106.466 42.1548 105.735 42.3202 104.882 42.3202ZM120.819 37.4882V42.1602H119.091V37.6802C119.091 37.1255 118.99 36.7148 118.787 36.4482C118.595 36.1708 118.286 36.0322 117.859 36.0322C117.571 36.0322 117.315 36.0962 117.091 36.2242C116.878 36.3522 116.707 36.5388 116.579 36.7842C116.462 37.0295 116.403 37.3282 116.403 37.6802V42.1602H114.675V37.6802C114.675 37.1255 114.574 36.7148 114.371 36.4482C114.179 36.1708 113.87 36.0322 113.443 36.0322C113.144 36.0322 112.883 36.0962 112.659 36.2242C112.446 36.3522 112.28 36.5388 112.163 36.7842C112.046 37.0295 111.987 37.3282 111.987 37.6802V42.1602H110.291V34.8002H111.987V35.8722C112.2 35.4668 112.478 35.1628 112.819 34.9602C113.171 34.7468 113.582 34.6402 114.051 34.6402C114.595 34.6402 115.043 34.7522 115.395 34.9762C115.758 35.2002 116.019 35.5255 116.179 35.9522C116.435 35.5255 116.755 35.2002 117.139 34.9762C117.534 34.7522 117.982 34.6402 118.483 34.6402C119.006 34.6402 119.438 34.7522 119.779 34.9762C120.131 35.1895 120.392 35.5095 120.563 35.9362C120.734 36.3628 120.819 36.8802 120.819 37.4882ZM123.361 39.7442C123.596 40.0002 123.831 40.2242 124.065 40.4162C124.311 40.5975 124.556 40.7362 124.801 40.8322C125.047 40.9175 125.292 40.9602 125.537 40.9602C125.847 40.9602 126.087 40.8908 126.257 40.7522C126.439 40.6135 126.529 40.4215 126.529 40.1762C126.529 39.9628 126.46 39.7815 126.321 39.6322C126.183 39.4722 125.991 39.3388 125.745 39.2322C125.5 39.1148 125.212 38.9975 124.881 38.8802C124.551 38.7522 124.22 38.6028 123.889 38.4322C123.569 38.2508 123.303 38.0162 123.089 37.7282C122.887 37.4402 122.785 37.0775 122.785 36.6402C122.785 36.1922 122.897 35.8188 123.121 35.5202C123.356 35.2215 123.665 35.0028 124.049 34.8642C124.444 34.7148 124.865 34.6402 125.313 34.6402C125.719 34.6402 126.097 34.6988 126.449 34.8162C126.812 34.9335 127.137 35.0882 127.425 35.2802C127.713 35.4722 127.959 35.6908 128.161 35.9362L127.201 36.9602C126.956 36.6722 126.663 36.4375 126.321 36.2562C125.98 36.0748 125.628 35.9842 125.265 35.9842C125.02 35.9842 124.817 36.0375 124.657 36.1442C124.497 36.2508 124.417 36.4055 124.417 36.6082C124.417 36.7788 124.487 36.9335 124.625 37.0722C124.775 37.2002 124.967 37.3175 125.201 37.4242C125.447 37.5308 125.719 37.6428 126.017 37.7602C126.423 37.9202 126.796 38.0962 127.137 38.2882C127.479 38.4802 127.751 38.7148 127.953 38.9922C128.167 39.2695 128.273 39.6322 128.273 40.0802C128.273 40.7735 128.033 41.3335 127.553 41.7602C127.084 42.1762 126.444 42.3842 125.633 42.3842C125.132 42.3842 124.668 42.3095 124.241 42.1602C123.825 42.0002 123.457 41.7975 123.137 41.5522C122.828 41.2962 122.567 41.0295 122.353 40.7522L123.361 39.7442Z" fill="white"/>
<rect x="0.5" y="0.5" width="49.7813" height="51" rx="5.5" stroke="white" stroke-opacity="0.1"/>
<g clip-path="url(#clip0_7_3842)">
<path d="M34.5091 18.6338C39.5854 18.6338 43.6993 20.3905 43.6993 22.85C43.6993 27.7689 31.1674 30.5798 26.9901 31.6338C22.8127 30.5798 10.2808 27.7689 10.2808 22.85C10.2808 20.3905 14.4581 18.6338 19.4709 18.6338C22.5788 18.6338 25.3191 19.3365 26.9901 20.0392C28.6609 19.3365 31.4013 18.6338 34.5091 18.6338ZM28.5507 29.5987C30.0227 29.2081 31.3512 28.8195 32.5944 28.4035C37.5753 26.7381 40.3574 24.918 40.3574 22.85C40.3574 21.1916 37.7892 20.0392 34.5091 20.0392C32.7112 20.0392 30.7663 20.4397 29.3526 21.0328L26.9901 22.0264L24.6273 21.0328C23.2137 20.4397 21.2688 20.0392 19.4709 20.0392C16.2293 20.0392 13.6226 21.2029 13.6226 22.85C13.6226 24.9188 16.4064 26.7381 21.3841 28.4035C22.6289 28.8195 23.9573 29.2081 25.4294 29.5981C25.9289 29.7309 26.4236 29.858 26.9901 30C27.5564 29.858 28.0511 29.7309 28.5507 29.5987Z" fill="white"/>
</g>
<defs>
<clipPath id="clip0_7_3842">
<rect width="36.7604" height="19.0667" fill="white" transform="translate(6.93896 15.167)"/>
</clipPath>
</defs>
</svg>
