<svg width="156" height="60" viewBox="0 0 156 60" fill="none" xmlns="http://www.w3.org/2000/svg">
<path d="M88.1556 18.3948L90.5216 11.6998H91.7566L88.1816 21.2548L85.4516 14.1828L82.7216 21.2548L79.1466 11.6998H80.3816L82.7996 18.3948L85.4516 11.2448L88.1556 18.3948ZM92.8646 12.3498C92.8646 12.1505 92.934 11.9815 93.0726 11.8428C93.22 11.7041 93.389 11.6348 93.5796 11.6348C93.779 11.6348 93.948 11.7041 94.0866 11.8428C94.2253 11.9815 94.2946 12.1505 94.2946 12.3498C94.2946 12.5405 94.2253 12.7095 94.0866 12.8568C93.948 12.9955 93.779 13.0648 93.5796 13.0648C93.389 13.0648 93.22 12.9955 93.0726 12.8568C92.934 12.7095 92.8646 12.5405 92.8646 12.3498ZM93.0596 14.8198H94.0996V20.7998H93.0596V14.8198ZM96.4886 18.9668C96.6099 19.1488 96.7486 19.3178 96.9046 19.4738C97.0606 19.6298 97.2383 19.7555 97.4376 19.8508C97.6456 19.9375 97.8709 19.9808 98.1136 19.9808C98.4083 19.9808 98.6379 19.9158 98.8026 19.7858C98.9759 19.6471 99.0626 19.4608 99.0626 19.2268C99.0626 19.0188 98.9933 18.8455 98.8546 18.7068C98.7246 18.5595 98.5556 18.4381 98.3476 18.3428C98.1396 18.2388 97.9186 18.1435 97.6846 18.0568C97.4246 17.9528 97.1603 17.8315 96.8916 17.6928C96.6316 17.5455 96.4106 17.3591 96.2286 17.1338C96.0553 16.8998 95.9686 16.6095 95.9686 16.2628C95.9686 15.9075 96.0596 15.6128 96.2416 15.3788C96.4323 15.1448 96.6749 14.9715 96.9696 14.8588C97.2729 14.7461 97.5849 14.6898 97.9056 14.6898C98.2263 14.6898 98.5253 14.7418 98.8026 14.8458C99.0886 14.9498 99.3399 15.0885 99.5566 15.2618C99.7733 15.4351 99.9423 15.6345 100.064 15.8598L99.2316 16.3928C99.0669 16.1675 98.8589 15.9811 98.6076 15.8338C98.3649 15.6865 98.0876 15.6128 97.7756 15.6128C97.5589 15.6128 97.3726 15.6605 97.2166 15.7558C97.0606 15.8511 96.9826 15.9985 96.9826 16.1978C96.9826 16.3538 97.0433 16.4925 97.1646 16.6138C97.2859 16.7351 97.4419 16.8435 97.6326 16.9388C97.8233 17.0341 98.0226 17.1251 98.2306 17.2118C98.5773 17.3505 98.8936 17.5021 99.1796 17.6668C99.4656 17.8228 99.6909 18.0135 99.8556 18.2388C100.029 18.4641 100.116 18.7545 100.116 19.1098C100.116 19.6298 99.9249 20.0631 99.5436 20.4098C99.1709 20.7565 98.6769 20.9298 98.0616 20.9298C97.6629 20.9298 97.3033 20.8605 96.9826 20.7218C96.6619 20.5745 96.3889 20.3881 96.1636 20.1628C95.9469 19.9375 95.7823 19.7078 95.6696 19.4738L96.4886 18.9668ZM102.525 10.6598V20.7998H101.485V10.6598H102.525ZM105.32 17.1598C105.32 16.6658 105.211 16.2931 104.995 16.0418C104.787 15.7905 104.47 15.6648 104.046 15.6648C103.742 15.6648 103.474 15.7298 103.24 15.8598C103.014 15.9898 102.837 16.1675 102.707 16.3928C102.585 16.6181 102.525 16.8738 102.525 17.1598H102.187C102.187 16.6831 102.278 16.2628 102.46 15.8988C102.642 15.5261 102.889 15.2315 103.201 15.0148C103.521 14.7981 103.89 14.6898 104.306 14.6898C104.722 14.6898 105.081 14.7765 105.385 14.9498C105.697 15.1231 105.935 15.3831 106.1 15.7298C106.273 16.0765 106.36 16.5098 106.36 17.0298V20.7998H105.32V17.1598ZM108.315 10.6598H109.355V20.7998H108.315V10.6598ZM111.311 12.3498C111.311 12.1505 111.38 11.9815 111.519 11.8428C111.666 11.7041 111.835 11.6348 112.026 11.6348C112.225 11.6348 112.394 11.7041 112.533 11.8428C112.672 11.9815 112.741 12.1505 112.741 12.3498C112.741 12.5405 112.672 12.7095 112.533 12.8568C112.394 12.9955 112.225 13.0648 112.026 13.0648C111.835 13.0648 111.666 12.9955 111.519 12.8568C111.38 12.7095 111.311 12.5405 111.311 12.3498ZM111.506 14.8198H112.546V20.7998H111.506V14.8198ZM114.935 18.9668C115.056 19.1488 115.195 19.3178 115.351 19.4738C115.507 19.6298 115.685 19.7555 115.884 19.8508C116.092 19.9375 116.317 19.9808 116.56 19.9808C116.855 19.9808 117.084 19.9158 117.249 19.7858C117.422 19.6471 117.509 19.4608 117.509 19.2268C117.509 19.0188 117.44 18.8455 117.301 18.7068C117.171 18.5595 117.002 18.4381 116.794 18.3428C116.586 18.2388 116.365 18.1435 116.131 18.0568C115.871 17.9528 115.607 17.8315 115.338 17.6928C115.078 17.5455 114.857 17.3591 114.675 17.1338C114.502 16.8998 114.415 16.6095 114.415 16.2628C114.415 15.9075 114.506 15.6128 114.688 15.3788C114.879 15.1448 115.121 14.9715 115.416 14.8588C115.719 14.7461 116.031 14.6898 116.352 14.6898C116.673 14.6898 116.972 14.7418 117.249 14.8458C117.535 14.9498 117.786 15.0885 118.003 15.2618C118.22 15.4351 118.389 15.6345 118.51 15.8598L117.678 16.3928C117.513 16.1675 117.305 15.9811 117.054 15.8338C116.811 15.6865 116.534 15.6128 116.222 15.6128C116.005 15.6128 115.819 15.6605 115.663 15.7558C115.507 15.8511 115.429 15.9985 115.429 16.1978C115.429 16.3538 115.49 16.4925 115.611 16.6138C115.732 16.7351 115.888 16.8435 116.079 16.9388C116.27 17.0341 116.469 17.1251 116.677 17.2118C117.024 17.3505 117.34 17.5021 117.626 17.6668C117.912 17.8228 118.137 18.0135 118.302 18.2388C118.475 18.4641 118.562 18.7545 118.562 19.1098C118.562 19.6298 118.371 20.0631 117.99 20.4098C117.617 20.7565 117.123 20.9298 116.508 20.9298C116.109 20.9298 115.75 20.8605 115.429 20.7218C115.108 20.5745 114.835 20.3881 114.61 20.1628C114.393 19.9375 114.229 19.7078 114.116 19.4738L114.935 18.9668ZM119.021 14.8198H122.011V15.7948H119.021V14.8198ZM119.996 12.7398H121.036V20.7998H119.996V12.7398ZM82.3446 35.9838L81.5766 42.7998H79.6246L81.1606 31.0398L85.7526 38.6398L90.3606 31.0398L91.8966 42.7998H89.9446L89.1606 35.9838L85.7526 41.7598L82.3446 35.9838ZM100.101 35.4398L95.3014 46.3198H93.4614L95.3814 41.9358L92.4214 35.4398H94.4054L96.7574 41.2638L95.9414 41.2158L98.2454 35.4398H100.101ZM106.077 31.5998H107.981V42.7998H106.077V31.5998ZM109.315 35.4398H113.491V36.9598H109.315V35.4398ZM110.547 32.8798H112.259V42.7998H110.547V32.8798ZM117.883 42.9598C117.136 42.9598 116.475 42.7998 115.899 42.4798C115.334 42.1598 114.896 41.7118 114.587 41.1358C114.278 40.5598 114.123 39.8878 114.123 39.1198C114.123 38.3411 114.278 37.6638 114.587 37.0878C114.907 36.5118 115.355 36.0691 115.931 35.7598C116.507 35.4398 117.184 35.2798 117.963 35.2798C118.742 35.2798 119.403 35.4291 119.947 35.7278C120.491 36.0265 120.907 36.4585 121.195 37.0238C121.494 37.5785 121.643 38.2505 121.643 39.0398C121.643 39.1251 121.638 39.2158 121.627 39.3118C121.627 39.4078 121.622 39.4771 121.611 39.5198H115.147V38.3358H120.139L119.611 39.0718C119.643 39.0078 119.675 38.9225 119.707 38.8158C119.75 38.6985 119.771 38.6025 119.771 38.5278C119.771 38.1331 119.691 37.7918 119.531 37.5038C119.382 37.2158 119.168 36.9918 118.891 36.8318C118.624 36.6718 118.31 36.5918 117.947 36.5918C117.51 36.5918 117.136 36.6878 116.827 36.8798C116.518 37.0718 116.283 37.3491 116.123 37.7118C115.963 38.0745 115.878 38.5225 115.867 39.0558C115.867 39.5891 115.947 40.0425 116.107 40.4158C116.267 40.7785 116.502 41.0558 116.811 41.2478C117.131 41.4398 117.515 41.5358 117.963 41.5358C118.432 41.5358 118.843 41.4398 119.195 41.2478C119.547 41.0558 119.84 40.7625 120.075 40.3678L121.563 40.9758C121.179 41.6371 120.683 42.1331 120.075 42.4638C119.467 42.7945 118.736 42.9598 117.883 42.9598ZM133.82 38.1278V42.7998H132.092V38.3198C132.092 37.7651 131.991 37.3545 131.788 37.0878C131.596 36.8105 131.287 36.6718 130.86 36.6718C130.572 36.6718 130.316 36.7358 130.092 36.8638C129.879 36.9918 129.708 37.1785 129.58 37.4238C129.463 37.6691 129.404 37.9678 129.404 38.3198V42.7998H127.676V38.3198C127.676 37.7651 127.575 37.3545 127.372 37.0878C127.18 36.8105 126.871 36.6718 126.444 36.6718C126.146 36.6718 125.884 36.7358 125.66 36.8638C125.447 36.9918 125.282 37.1785 125.164 37.4238C125.047 37.6691 124.988 37.9678 124.988 38.3198V42.7998H123.292V35.4398H124.988V36.5118C125.202 36.1065 125.479 35.8025 125.82 35.5998C126.172 35.3865 126.583 35.2798 127.052 35.2798C127.596 35.2798 128.044 35.3918 128.396 35.6158C128.759 35.8398 129.02 36.1651 129.18 36.5918C129.436 36.1651 129.756 35.8398 130.14 35.6158C130.535 35.3918 130.983 35.2798 131.484 35.2798C132.007 35.2798 132.439 35.3918 132.78 35.6158C133.132 35.8291 133.394 36.1491 133.564 36.5758C133.735 37.0025 133.82 37.5198 133.82 38.1278ZM136.363 40.3838C136.598 40.6398 136.832 40.8638 137.067 41.0558C137.312 41.2371 137.558 41.3758 137.803 41.4718C138.048 41.5571 138.294 41.5998 138.539 41.5998C138.848 41.5998 139.088 41.5305 139.259 41.3918C139.44 41.2531 139.531 41.0611 139.531 40.8158C139.531 40.6025 139.462 40.4211 139.323 40.2718C139.184 40.1118 138.992 39.9785 138.747 39.8718C138.502 39.7545 138.214 39.6371 137.883 39.5198C137.552 39.3918 137.222 39.2425 136.891 39.0718C136.571 38.8905 136.304 38.6558 136.091 38.3678C135.888 38.0798 135.787 37.7171 135.787 37.2798C135.787 36.8318 135.899 36.4585 136.123 36.1598C136.358 35.8611 136.667 35.6425 137.051 35.5038C137.446 35.3545 137.867 35.2798 138.315 35.2798C138.72 35.2798 139.099 35.3385 139.451 35.4558C139.814 35.5731 140.139 35.7278 140.427 35.9198C140.715 36.1118 140.96 36.3305 141.163 36.5758L140.203 37.5998C139.958 37.3118 139.664 37.0771 139.323 36.8958C138.982 36.7145 138.63 36.6238 138.267 36.6238C138.022 36.6238 137.819 36.6771 137.659 36.7838C137.499 36.8905 137.419 37.0451 137.419 37.2478C137.419 37.4185 137.488 37.5731 137.627 37.7118C137.776 37.8398 137.968 37.9571 138.203 38.0638C138.448 38.1705 138.72 38.2825 139.019 38.3998C139.424 38.5598 139.798 38.7358 140.139 38.9278C140.48 39.1198 140.752 39.3545 140.955 39.6318C141.168 39.9091 141.275 40.2718 141.275 40.7198C141.275 41.4131 141.035 41.9731 140.555 42.3998C140.086 42.8158 139.446 43.0238 138.635 43.0238C138.134 43.0238 137.67 42.9491 137.243 42.7998C136.827 42.6398 136.459 42.4371 136.139 42.1918C135.83 41.9358 135.568 41.6691 135.355 41.3918L136.363 40.3838Z" fill="white"/>
<rect x="0.5" y="0.5" width="59.7821" height="59" rx="5.5" stroke="white" stroke-opacity="0.1"/>
<path d="M49.9999 22C56.0759 22 61 24.027 61 26.8649C61 32.5405 46.0001 35.7838 41.0001 37C36 35.7838 21 32.5405 21 26.8649C21 24.027 26 22 32 22C35.72 22 39 22.8108 41.0001 23.6216C42.9999 22.8108 46.28 22 49.9999 22ZM42.868 34.6518C44.6299 34.2011 46.22 33.7527 47.708 33.2727C53.67 31.3511 56.9999 29.251 56.9999 26.8649C56.9999 24.9513 53.926 23.6216 49.9999 23.6216C47.8479 23.6216 45.5199 24.0838 43.8279 24.7681L41.0001 25.9146L38.172 24.7681C36.48 24.0838 34.152 23.6216 32 23.6216C28.12 23.6216 25 24.9643 25 26.8649C25 29.2519 28.332 31.3511 34.29 33.2727C35.78 33.7527 37.37 34.2011 39.132 34.6511C39.7299 34.8043 40.322 34.951 41.0001 35.1148C41.6779 34.951 42.27 34.8043 42.868 34.6518Z" fill="white"/>
</svg>
