<svg width="30" height="35" viewBox="0 0 30 35" fill="none" xmlns="http://www.w3.org/2000/svg">
<path d="M15.4712 0C7.47481 0 0.969238 6.89985 0.969238 15.3809C0.969238 16.3207 0.969238 23.5914 0.969238 23.7207C0.969238 25.4169 2.27035 26.7969 3.86963 26.7969H5.00272C5.40181 27.9903 6.47644 28.8477 7.73682 28.8477C9.33609 28.8477 10.6372 27.4677 10.6372 25.7715V17.4316C10.6372 15.7354 9.33609 14.3555 7.73682 14.3555C6.47644 14.3555 5.40181 15.2128 5.00272 16.4062H3.86963C3.53067 16.4062 3.20544 16.4688 2.90283 16.5826V15.3809C2.90283 8.03065 8.541 2.05078 15.4712 2.05078C22.4014 2.05078 28.0396 8.03065 28.0396 15.3809V16.5826C27.7369 16.4688 27.4117 16.4062 27.0728 16.4062H25.9397C25.5406 15.2128 24.4659 14.3555 23.2056 14.3555C21.6063 14.3555 20.3052 15.7354 20.3052 17.4316V25.7715C20.3052 27.4677 21.6063 28.8477 23.2056 28.8477C23.4982 28.8477 23.7808 28.801 24.0474 28.7151C23.6857 29.9772 22.5786 30.8984 21.272 30.8984H18.2053C17.8062 29.705 16.7316 28.8477 15.4712 28.8477C13.8719 28.8477 12.5708 30.2276 12.5708 31.9238C12.5708 33.62 13.8719 35 15.4712 35C16.7316 35 17.8062 34.1426 18.2053 32.9492H21.272C23.9374 32.9492 26.106 30.6493 26.106 27.8223V26.7969H27.0728C28.672 26.7969 29.9731 25.4169 29.9731 23.7207C29.9731 23.5933 29.9731 16.32 29.9731 15.3809C29.9731 6.89985 23.4676 0 15.4712 0ZM6.77002 17.4316C6.77002 16.8662 7.20372 16.4062 7.73682 16.4062C8.26991 16.4062 8.70361 16.8662 8.70361 17.4316V25.7715C8.70361 26.3369 8.26991 26.7969 7.73682 26.7969C7.20372 26.7969 6.77002 26.3369 6.77002 25.7715V17.4316ZM3.86963 18.457H4.83643V24.7461H3.86963C3.33654 24.7461 2.90283 24.2861 2.90283 23.7207V19.4824C2.90283 18.917 3.33654 18.457 3.86963 18.457ZM15.4712 32.9492C14.9381 32.9492 14.5044 32.4892 14.5044 31.9238C14.5044 31.3584 14.9381 30.8984 15.4712 30.8984C16.0043 30.8984 16.438 31.3584 16.438 31.9238C16.438 32.4892 16.0043 32.9492 15.4712 32.9492ZM24.1724 25.7715C24.1724 26.3369 23.7387 26.7969 23.2056 26.7969C22.6725 26.7969 22.2388 26.3369 22.2388 25.7715V17.4316C22.2388 16.8662 22.6725 16.4062 23.2056 16.4062C23.7387 16.4062 24.1724 16.8662 24.1724 17.4316V25.7715ZM28.0396 23.7207C28.0396 24.2861 27.6058 24.7461 27.0728 24.7461H26.106V18.457H27.0728C27.6058 18.457 28.0396 18.917 28.0396 19.4824V23.7207Z" fill="#041E42"/>
</svg>
