<svg width="39" height="25" viewBox="0 0 39 25" fill="none" xmlns="http://www.w3.org/2000/svg">
<g clip-path="url(#clip0_1_774)">
<path d="M34.5604 0.526367H4.44768C4.32225 0.526367 4.19659 0.526367 4.07137 0.527047C3.96566 0.527953 3.86017 0.529085 3.75445 0.532029C3.52419 0.538371 3.29193 0.552414 3.06455 0.594088C2.83651 0.634015 2.61557 0.708442 2.40899 0.814915C1.99371 1.03078 1.65616 1.37574 1.44494 1.80015C1.34057 2.01134 1.26774 2.23732 1.22886 2.47056C1.18764 2.70316 1.17412 2.9403 1.16792 3.17539C1.16522 3.28333 1.16359 3.3913 1.16304 3.49927C1.1626 3.62701 1.1626 3.75521 1.1626 3.88363V21.1689C1.1626 21.2973 1.1626 21.4253 1.16304 21.5537C1.16371 21.6615 1.16504 21.7695 1.16792 21.8776C1.17412 22.1122 1.18786 22.3496 1.22886 22.5819C1.26766 22.8152 1.34042 23.0412 1.44472 23.2524C1.54959 23.4633 1.68647 23.6559 1.85029 23.8231C2.01382 23.9906 2.20233 24.1305 2.40877 24.2376C2.61865 24.347 2.83362 24.4165 3.06477 24.4589C3.29193 24.5003 3.52419 24.5144 3.75445 24.5207C3.86017 24.5232 3.96566 24.5246 4.07137 24.5252C4.19659 24.5261 4.32225 24.5261 4.44768 24.5261H34.5604C34.6856 24.5261 34.8113 24.5261 34.9365 24.5252C35.042 24.5248 35.1475 24.5232 35.2537 24.5207C35.4835 24.5144 35.7157 24.5003 35.9436 24.4589C36.1716 24.4189 36.3926 24.3443 36.5991 24.2376C37.0142 24.0214 37.3517 23.6765 37.5632 23.2524C37.6702 23.0379 37.738 22.8182 37.779 22.5819C37.8203 22.3496 37.8335 22.1122 37.8398 21.8776C37.8426 21.7695 37.8442 21.6615 37.8446 21.5537C37.8455 21.4253 37.8455 21.2973 37.8455 21.1689V3.88385C37.8455 3.75543 37.8455 3.62724 37.8446 3.49905C37.8442 3.39115 37.8426 3.28325 37.8398 3.17539C37.8335 2.9403 37.8203 2.70316 37.779 2.47056C37.7404 2.23728 37.6677 2.01127 37.5632 1.80015C37.3518 1.37582 37.0143 1.03088 36.5991 0.814915C36.3925 0.708551 36.1716 0.634203 35.9436 0.594314C35.7157 0.552414 35.4835 0.538598 35.2537 0.532256C35.148 0.529513 35.0422 0.527852 34.9365 0.527273C34.8113 0.526367 34.6856 0.526367 34.5604 0.526367Z" fill="#F3F5F6"/>
<path d="M34.5604 1.32617L34.9309 1.32685C35.0311 1.32753 35.1315 1.32866 35.2323 1.33138C35.4081 1.33636 35.6133 1.3461 35.8048 1.38121C35.971 1.41179 36.1106 1.45822 36.2445 1.52797C36.5124 1.66717 36.73 1.88981 36.8659 2.16373C36.9337 2.29963 36.9789 2.44141 37.0088 2.61286C37.043 2.80628 37.0525 3.01669 37.0572 3.1972C37.06 3.29913 37.0614 3.40105 37.0616 3.50523C37.0627 3.63139 37.0627 3.75731 37.0627 3.8837V21.169C37.0627 21.2953 37.0627 21.4213 37.0618 21.5499C37.0614 21.6518 37.06 21.7537 37.0574 21.8557C37.0525 22.036 37.043 22.2464 37.0084 22.4421C36.9833 22.5977 36.9351 22.7486 36.8655 22.8894C36.7292 23.1634 36.5113 23.386 36.2431 23.5251C36.1102 23.5944 35.971 23.6409 35.8063 23.6712C35.6111 23.7068 35.397 23.7165 35.2359 23.721C35.1346 23.7233 35.0338 23.7249 34.9303 23.7253C34.8073 23.7262 34.6836 23.7262 34.5604 23.7262H4.44276C4.32087 23.7262 4.19898 23.7262 4.07487 23.7253C3.97513 23.7249 3.87539 23.7235 3.77568 23.7213C3.61079 23.7167 3.39671 23.7068 3.20301 23.6714C3.04987 23.6454 2.90147 23.5957 2.76287 23.5242C2.62993 23.4552 2.50858 23.365 2.4034 23.257C2.29789 23.1493 2.20977 23.0252 2.14233 22.8894C2.07269 22.7477 2.02442 22.5962 1.99917 22.4398C1.96459 22.2443 1.95484 22.0348 1.95041 21.8559C1.94791 21.7536 1.94643 21.6513 1.94598 21.549L1.94531 21.2484V3.80442L1.94576 3.50433C1.94621 3.40186 1.94769 3.29941 1.95019 3.19698C1.95506 3.0176 1.96459 2.8081 1.99939 2.61105C2.02469 2.45497 2.07296 2.30369 2.14256 2.16237C2.20993 2.02693 2.29769 1.90327 2.40407 1.79478C2.5095 1.68686 2.63097 1.59666 2.76398 1.52752C2.90224 1.45653 3.05017 1.40721 3.20279 1.38121C3.39449 1.3461 3.59993 1.33636 3.7759 1.33138C3.87607 1.32866 3.97647 1.32753 4.07598 1.32685L4.44763 1.32617H34.5604Z" fill="white"/>
<path d="M10.805 8.62808C11.1162 8.23059 11.3271 7.69675 11.2715 7.15137C10.8163 7.17447 10.2609 7.45826 9.93914 7.8562C9.65036 8.19684 9.39483 8.75288 9.46132 9.27539C9.97238 9.32069 10.483 9.01447 10.805 8.62808Z" fill="black"/>
<path d="M11.2657 9.37707C10.5233 9.33177 9.89258 9.8074 9.53821 9.8074C9.18361 9.8074 8.64086 9.39971 8.05379 9.41081C7.28986 9.42214 6.58112 9.86379 6.19328 10.5659C5.39589 11.9701 5.98274 14.0539 6.75842 15.1976C7.13495 15.7639 7.58883 16.3867 8.18676 16.3643C8.7519 16.3416 8.9733 15.9906 9.65988 15.9906C10.3462 15.9906 10.5457 16.3643 11.1439 16.353C11.7639 16.3416 12.1518 15.7867 12.5283 15.2205C12.9605 14.575 13.1371 13.9522 13.1482 13.9182C13.1371 13.9069 11.9523 13.4423 11.9412 12.0494C11.9302 10.883 12.8716 10.3281 12.9159 10.2939C12.3843 9.49031 11.5536 9.39971 11.2655 9.37707" fill="black"/>
<path d="M18.6648 7.79883C20.2777 7.79883 21.4011 8.93513 21.4011 10.5894C21.4011 12.2496 20.2547 13.3918 18.6244 13.3918H16.8386V16.2945H15.5483V7.79883H18.6648ZM16.8386 12.2849H18.319C19.4427 12.2849 20.0818 11.6668 20.0818 10.5953C20.0818 9.524 19.4424 8.91157 18.3248 8.91157H16.8386V12.2849Z" fill="black"/>
<path d="M21.7212 14.5339C21.7212 13.4447 22.5334 12.8207 24.0311 12.7265L25.6383 12.6264V12.1553C25.6383 11.4668 25.1949 11.0899 24.4057 11.0899C23.7546 11.0899 23.2821 11.4312 23.1846 11.9551H22.0206C22.0554 10.8544 23.0691 10.0537 24.4403 10.0537C25.9149 10.0537 26.877 10.8426 26.877 12.0672V16.2942H25.6847V15.2757H25.6558C25.3159 15.9409 24.5668 16.3587 23.7546 16.3587C22.5565 16.3587 21.7212 15.629 21.7212 14.5339ZM25.6383 13.9865V13.5095L24.204 13.6037C23.3973 13.6567 22.9771 13.9627 22.9771 14.4983C22.9771 15.0166 23.4148 15.3522 24.1003 15.3522C24.9757 15.3522 25.6383 14.781 25.6383 13.9865Z" fill="black"/>
<path d="M27.9733 18.5662V17.5479C28.054 17.5594 28.2496 17.5712 28.3534 17.5712C28.9236 17.5712 29.2463 17.3243 29.4422 16.6881L29.5574 16.3115L27.374 10.1299H28.7219L30.2429 15.1457H30.2717L31.7925 10.1299H33.106L30.8419 16.6233C30.3234 18.113 29.7301 18.6017 28.4744 18.6017C28.3764 18.6017 28.0595 18.59 27.9733 18.5662Z" fill="black"/>
</g>
<defs>
<clipPath id="clip0_1_774">
<rect width="37.1831" height="24" fill="white" transform="translate(0.912598 0.526367)"/>
</clipPath>
</defs>
</svg>
