<svg width="39" height="25" viewBox="0 0 39 25" fill="none" xmlns="http://www.w3.org/2000/svg">
<g clip-path="url(#clip0_1_794)">
<path d="M35.0962 0.526367H3.78414C2.12069 0.526367 0.848633 1.82637 0.848633 3.52637V21.5264C0.848633 23.2264 2.21854 24.5264 3.78414 24.5264H35.0962C36.7597 24.5264 38.0317 23.2264 38.0317 21.5264V3.52637C38.0317 1.82637 36.6618 0.526367 35.0962 0.526367Z" fill="#F3F5F6"/>
<path d="M35.0962 1.52637C36.1726 1.52637 37.0532 2.42637 37.0532 3.52637V21.5264C37.0532 22.6264 36.1726 23.5264 35.0962 23.5264H3.78415C2.7078 23.5264 1.82715 22.6264 1.82715 21.5264V3.52637C1.82715 2.42637 2.7078 1.52637 3.78415 1.52637H35.0962Z" fill="white"/>
<path d="M24.235 8.82637C24.4307 7.82637 24.235 7.12637 23.6479 6.52637C23.0608 5.82637 21.9845 5.52637 20.6146 5.52637H16.6027C16.3092 5.52637 16.1135 5.72637 16.0156 6.02637L14.5479 16.1264C14.5479 16.3264 14.6457 16.5264 14.8414 16.5264H17.4834L17.8748 13.1264L19.6361 10.9264L24.235 8.82637Z" fill="#003087"/>
<path d="M24.2349 8.82617L24.0392 9.02617C23.5499 11.8262 21.8865 12.8262 19.5381 12.8262H18.4617C18.1681 12.8262 17.9724 13.0262 17.8746 13.3262L17.2875 17.2262L17.0918 18.2262C17.0918 18.4262 17.1896 18.6262 17.3853 18.6262H19.4402C19.7338 18.6262 19.9295 18.4262 19.9295 18.2262V18.1262L20.3209 15.7262V15.6262C20.3209 15.4262 20.6144 15.2262 20.8101 15.2262H21.1037C23.1585 15.2262 24.7241 14.4262 25.1155 12.0262C25.3112 11.0262 25.2134 10.2262 24.7241 9.62617C24.6263 9.12617 24.4306 8.92617 24.2349 8.82617Z" fill="#3086C8"/>
<path d="M23.6477 8.62617C23.5498 8.52617 23.452 8.52617 23.3541 8.52617C23.2563 8.52617 23.1584 8.52617 23.0606 8.42617C22.767 8.32617 22.3756 8.32617 21.9842 8.32617H19.0487C18.9509 8.32617 18.853 8.32617 18.853 8.42617C18.6573 8.52617 18.5595 8.62617 18.5595 8.82617L17.8745 13.2262V13.3262C17.8745 13.0262 18.1681 12.8262 18.4616 12.8262H19.7337C22.1799 12.8262 23.7455 11.8262 24.2348 9.02617V8.82617C24.1369 8.72617 23.9412 8.62617 23.7455 8.62617H23.6477Z" fill="#012169"/>
</g>
<defs>
<clipPath id="clip0_1_794">
<rect width="37.1831" height="24" fill="white" transform="translate(0.848633 0.526367)"/>
</clipPath>
</defs>
</svg>
