<svg width="36" height="30" viewBox="0 0 36 30" fill="none" xmlns="http://www.w3.org/2000/svg">
<g clip-path="url(#clip0_1_846)">
<path d="M30.6824 22.7614L25.287 19.7756C24.0027 19.065 22.3355 19.1268 21.138 19.929C20.0894 20.6319 18.5839 20.56 17.6364 19.7619L12.1581 15.1488C11.2106 14.3507 11.1252 13.0829 11.9597 12.1999C12.9126 11.1914 12.9857 9.78747 12.1418 8.70601L8.59617 4.16247C7.9762 3.36802 7.01459 2.89264 5.88826 2.82374C4.76193 2.75554 3.72937 3.1087 2.97976 3.81961C-1.1733 7.75775 -0.960486 13.7611 3.4641 17.4868L14.8597 27.0834C17.1619 29.022 20.1959 30.0003 23.2363 30.0003C26.0388 30.0003 28.8467 29.1687 31.0898 27.4912C31.934 26.8598 32.354 25.99 32.2722 25.0418C32.1906 24.0935 31.6261 23.2837 30.6824 22.7614ZM29.7039 26.177C25.8523 29.0575 19.9801 28.9096 16.3356 25.8406L4.93969 16.2442C1.29543 13.1752 1.11985 8.23016 4.54014 4.98645C4.82988 4.71179 5.19083 4.57286 5.61429 4.57286C5.65478 4.57286 5.69583 4.57423 5.73741 4.57675C6.21442 4.60582 6.58922 4.79121 6.85205 5.12767L10.3976 9.6712C10.7504 10.1235 10.7227 10.6865 10.3264 11.1056C8.83074 12.6885 8.98376 14.9611 10.6822 16.3916L16.1606 21.0047C17.859 22.4353 20.5577 22.5641 22.4374 21.3043C22.9351 20.9709 23.6037 20.9473 24.1408 21.2446L29.5362 24.2301H29.536C29.9358 24.4515 30.1559 24.7671 30.1905 25.1688C30.225 25.5705 30.0614 25.9097 29.7039 26.177Z" fill="#041E42"/>
<path d="M35.3193 0.257492C35.1236 0.0926971 34.8583 0 34.5816 0H28.2855C27.709 0 27.2418 0.393448 27.2418 0.878906C27.2418 1.36414 27.709 1.75758 28.2855 1.75758H32.0667L20.4156 11.5945C20.0084 11.938 20.0095 12.4944 20.4175 12.8373C20.621 13.0083 20.8877 13.0939 21.1543 13.0939C21.4218 13.0939 21.6895 13.0078 21.8933 12.8357L33.5379 3.0043L33.5377 6.1805C33.5377 6.66595 34.0049 7.0594 34.5811 7.0594H34.5814C35.1576 7.0594 35.6248 6.66595 35.6248 6.1805L35.6251 0.878677C35.6251 0.645905 35.5153 0.422287 35.3193 0.257492Z" fill="#041E42"/>
</g>
<defs>
<clipPath id="clip0_1_846">
<rect width="35.625" height="30" fill="white"/>
</clipPath>
</defs>
</svg>
