<svg width="24" height="20" viewBox="0 0 24 20" fill="none" xmlns="http://www.w3.org/2000/svg">
<g clip-path="url(#clip0_7_3829)">
<g filter="url(#filter0_d_7_3829)">
<path fill-rule="evenodd" clip-rule="evenodd" d="M5.20898 17.2006C5.20898 16.3169 22.5684 15.6006 43.9837 15.6006C65.399 15.6006 82.7585 16.3169 82.7585 17.2006C82.7585 18.0843 65.399 18.8006 43.9837 18.8006C22.5684 18.8006 5.20898 18.0843 5.20898 17.2006Z" fill="white"/>
<path fill-rule="evenodd" clip-rule="evenodd" d="M-343.762 1.20039C-343.762 0.758563 -335.082 0.400391 -324.375 0.400391H-246.825C-237.585 0.400391 -229.628 0.669499 -227.815 1.04338L-211.532 4.40039H102.148C107.926 4.40039 113.403 4.50673 117.086 4.69044C120.77 4.87413 122.274 5.11605 121.192 5.35025L90.1454 12.0682C87.4855 12.6207 80.2017 13.117 69.5677 13.4702C58.9879 13.8217 45.7618 14.0092 32.1868 14.0004H-155.925C-169.501 14.0092 -182.727 13.8217 -193.307 13.4702C-203.935 13.1171 -211.217 12.6211 -213.88 12.0689C-213.881 12.0687 -213.878 12.0691 -213.88 12.0689L-246.267 5.39175C-246.398 5.36966 -246.508 5.34721 -246.593 5.32445L-262.717 2.00039H-324.375C-335.082 2.00039 -343.762 1.64221 -343.762 1.20039H-343.762ZM-203.771 6.00039L-175.851 11.7565C-174.965 11.9407 -172.537 12.1061 -168.992 12.2238C-165.448 12.3416 -161.013 12.4042 -156.464 12.4005L-156.092 12.4004H32.3535L32.7258 12.4005C37.2741 12.4042 41.7099 12.3416 45.2539 12.2238C48.7824 12.1066 51.2039 11.9422 52.0996 11.7591L78.7146 6.00039H-203.771Z" fill="white"/>
</g>
</g>
<defs>
<filter id="filter0_d_7_3829" x="-347.762" y="0.400391" width="473.298" height="26.4004" filterUnits="userSpaceOnUse" color-interpolation-filters="sRGB">
<feFlood flood-opacity="0" result="BackgroundImageFix"/>
<feColorMatrix in="SourceAlpha" type="matrix" values="0 0 0 0 0 0 0 0 0 0 0 0 0 0 0 0 0 0 127 0" result="hardAlpha"/>
<feOffset dy="4"/>
<feGaussianBlur stdDeviation="2"/>
<feComposite in2="hardAlpha" operator="out"/>
<feColorMatrix type="matrix" values="0 0 0 0 0 0 0 0 0 0 0 0 0 0 0 0 0 0 0.25 0"/>
<feBlend mode="normal" in2="BackgroundImageFix" result="effect1_dropShadow_7_3829"/>
<feBlend mode="normal" in="SourceGraphic" in2="effect1_dropShadow_7_3829" result="shape"/>
</filter>
<clipPath id="clip0_7_3829">
<rect width="22.6633" height="19.2" fill="white" transform="translate(0.684082 0.400391)"/>
</clipPath>
</defs>
</svg>
