<svg width="77" height="10" viewBox="0 0 77 10" fill="none" xmlns="http://www.w3.org/2000/svg">
<g clip-path="url(#clip0_444_1500)">
<path d="M11.3885 3.83573C11.3166 3.63325 11.1204 3.48989 10.8893 3.47074L7.73642 3.20866L6.4904 0.537725C6.39841 0.341494 6.18908 0.214844 5.9561 0.214844C5.72311 0.214844 5.5137 0.341494 5.42229 0.537725L4.17627 3.20866L1.02293 3.47074C0.791775 3.49027 0.596035 3.63363 0.523706 3.83573C0.451793 4.03822 0.518206 4.26032 0.69303 4.4007L3.07633 6.3141L2.37361 9.14786C2.3222 9.35622 2.41053 9.57168 2.59935 9.69665C2.70085 9.76417 2.82009 9.79789 2.93975 9.79789C3.04258 9.79789 3.14549 9.77287 3.2374 9.72251L5.9561 8.23415L8.67429 9.72251C8.8737 9.83161 9.12444 9.82162 9.31284 9.69665C9.50167 9.57168 9.58999 9.35622 9.53858 9.14786L8.83587 6.3141L11.2192 4.4007C11.3939 4.26032 11.4604 4.03868 11.3885 3.83573V3.83573Z" fill="#F5C34B"/>
</g>
<g clip-path="url(#clip1_444_1500)">
<path d="M27.7713 3.83573C27.6994 3.63325 27.5032 3.48989 27.2721 3.47074L24.1192 3.20866L22.8732 0.537725C22.7812 0.341494 22.5719 0.214844 22.3389 0.214844C22.1059 0.214844 21.8965 0.341494 21.8051 0.537725L20.5591 3.20866L17.4057 3.47074C17.1746 3.49027 16.9788 3.63363 16.9065 3.83573C16.8346 4.03822 16.901 4.26032 17.0758 4.4007L19.4591 6.3141L18.7564 9.14786C18.705 9.35622 18.7933 9.57168 18.9822 9.69665C19.0837 9.76417 19.2029 9.79789 19.3226 9.79789C19.4254 9.79789 19.5283 9.77287 19.6202 9.72251L22.3389 8.23415L25.0571 9.72251C25.2565 9.83161 25.5072 9.82162 25.6957 9.69665C25.8845 9.57168 25.9728 9.35622 25.9214 9.14786L25.2187 6.3141L27.602 4.4007C27.7767 4.26032 27.8432 4.03868 27.7713 3.83573V3.83573Z" fill="#F5C34B"/>
</g>
<g clip-path="url(#clip2_444_1500)">
<path d="M44.1541 3.83573C44.0822 3.63325 43.886 3.48989 43.6549 3.47074L40.502 3.20866L39.256 0.537725C39.164 0.341494 38.9547 0.214844 38.7217 0.214844C38.4887 0.214844 38.2793 0.341494 38.1879 0.537725L36.9419 3.20866L33.7886 3.47074C33.5574 3.49027 33.3617 3.63363 33.2893 3.83573C33.2174 4.03822 33.2838 4.26032 33.4587 4.4007L35.842 6.3141L35.1392 9.14786C35.0878 9.35622 35.1762 9.57168 35.365 9.69665C35.4665 9.76417 35.5857 9.79789 35.7054 9.79789C35.8082 9.79789 35.9111 9.77287 36.003 9.72251L38.7217 8.23415L41.4399 9.72251C41.6393 9.83161 41.8901 9.82162 42.0785 9.69665C42.2673 9.57168 42.3556 9.35622 42.3042 9.14786L41.6015 6.3141L43.9848 4.4007C44.1595 4.26032 44.226 4.03868 44.1541 3.83573V3.83573Z" fill="#F5C34B"/>
</g>
<g clip-path="url(#clip3_444_1500)">
<path d="M60.5369 3.83573C60.465 3.63325 60.2689 3.48989 60.0377 3.47074L56.8849 3.20866L55.6388 0.537725C55.5468 0.341494 55.3375 0.214844 55.1045 0.214844C54.8715 0.214844 54.6621 0.341494 54.5707 0.537725L53.3247 3.20866L50.1714 3.47074C49.9402 3.49027 49.7445 3.63363 49.6721 3.83573C49.6002 4.03822 49.6666 4.26032 49.8415 4.4007L52.2248 6.3141L51.522 9.14786C51.4706 9.35622 51.559 9.57168 51.7478 9.69665C51.8493 9.76417 51.9685 9.79789 52.0882 9.79789C52.191 9.79789 52.2939 9.77287 52.3858 9.72251L55.1045 8.23415L57.8227 9.72251C58.0221 9.83161 58.2729 9.82162 58.4613 9.69665C58.6501 9.57168 58.7384 9.35622 58.687 9.14786L57.9843 6.3141L60.3676 4.4007C60.5423 4.26032 60.6088 4.03868 60.5369 3.83573V3.83573Z" fill="#F5C34B"/>
</g>
<g clip-path="url(#clip4_444_1500)">
<path d="M76.9202 3.83573C76.8483 3.63325 76.6522 3.48989 76.421 3.47074L73.2682 3.20866L72.0221 0.537725C71.9301 0.341494 71.7208 0.214844 71.4878 0.214844C71.2548 0.214844 71.0454 0.341494 70.954 0.537725L69.708 3.20866L66.5547 3.47074C66.3235 3.49027 66.1278 3.63363 66.0554 3.83573C65.9835 4.03822 66.0499 4.26032 66.2248 4.4007L68.6081 6.3141L67.9053 9.14786C67.8539 9.35622 67.9423 9.57168 68.1311 9.69665C68.2326 9.76417 68.3518 9.79789 68.4715 9.79789C68.5743 9.79789 68.6772 9.77287 68.7691 9.72251L71.4878 8.23415L74.206 9.72251C74.4054 9.83161 74.6562 9.82162 74.8446 9.69665C75.0334 9.57168 75.1217 9.35622 75.0703 9.14786L74.3676 6.3141L76.7509 4.4007C76.9256 4.26032 76.9921 4.03868 76.9202 3.83573V3.83573Z" fill="#F5C34B"/>
</g>
<defs>
<clipPath id="clip0_444_1500">
<rect width="10.9219" height="10" fill="white" transform="translate(0.495117)"/>
</clipPath>
<clipPath id="clip1_444_1500">
<rect width="10.9219" height="10" fill="white" transform="translate(16.8779)"/>
</clipPath>
<clipPath id="clip2_444_1500">
<rect width="10.9219" height="10" fill="white" transform="translate(33.2607)"/>
</clipPath>
<clipPath id="clip3_444_1500">
<rect width="10.9219" height="10" fill="white" transform="translate(49.6436)"/>
</clipPath>
<clipPath id="clip4_444_1500">
<rect width="10.9219" height="10" fill="white" transform="translate(66.0269)"/>
</clipPath>
</defs>
</svg>
