<svg width="136" height="60" viewBox="0 0 136 60" fill="none" xmlns="http://www.w3.org/2000/svg">
<path d="M65.367 10.366H66.329V12.316H65.367V10.366ZM65.367 20.376H66.329V22.456H65.367V20.376ZM67.72 14.318C67.59 14.0667 67.4427 13.8283 67.278 13.603C67.1133 13.369 66.914 13.1827 66.68 13.044C66.446 12.8967 66.16 12.823 65.822 12.823C65.4753 12.823 65.1893 12.8707 64.964 12.966C64.7473 13.0613 64.587 13.2 64.483 13.382C64.379 13.564 64.327 13.7893 64.327 14.058C64.327 14.3873 64.4267 14.6603 64.626 14.877C64.8253 15.085 65.0853 15.267 65.406 15.423C65.7267 15.5703 66.069 15.7133 66.433 15.852C66.667 15.9387 66.9183 16.0513 67.187 16.19C67.4557 16.3287 67.707 16.502 67.941 16.71C68.175 16.9093 68.3657 17.1607 68.513 17.464C68.6603 17.7587 68.734 18.114 68.734 18.53C68.734 19.0413 68.6257 19.4963 68.409 19.895C68.201 20.285 67.8933 20.5883 67.486 20.805C67.0787 21.0217 66.5717 21.13 65.965 21.13C65.471 21.13 65.0117 21.026 64.587 20.818C64.1623 20.6013 63.7897 20.3067 63.469 19.934C63.157 19.5613 62.9057 19.1237 62.715 18.621L63.651 18.062C63.833 18.478 64.0367 18.8377 64.262 19.141C64.4873 19.4443 64.743 19.6783 65.029 19.843C65.3237 20.0077 65.6573 20.09 66.03 20.09C66.3767 20.09 66.6627 20.0337 66.888 19.921C67.122 19.7997 67.2953 19.6307 67.408 19.414C67.5293 19.1887 67.59 18.9243 67.59 18.621C67.59 18.231 67.4817 17.9103 67.265 17.659C67.057 17.4077 66.7883 17.1997 66.459 17.035C66.1383 16.8703 65.8047 16.7273 65.458 16.606C65.2327 16.528 64.9857 16.424 64.717 16.294C64.457 16.164 64.21 15.9993 63.976 15.8C63.742 15.592 63.547 15.3407 63.391 15.046C63.2437 14.7513 63.17 14.396 63.17 13.98C63.17 13.564 63.287 13.1913 63.521 12.862C63.755 12.524 64.0713 12.2597 64.47 12.069C64.8687 11.8697 65.315 11.77 65.809 11.77C66.303 11.77 66.7363 11.8697 67.109 12.069C67.4817 12.2597 67.7937 12.5067 68.045 12.81C68.305 13.1047 68.4957 13.408 68.617 13.72L67.72 14.318ZM69.801 21L74.104 16.411C74.3033 16.1943 74.4723 15.982 74.611 15.774C74.7583 15.5573 74.8667 15.3407 74.936 15.124C75.014 14.8987 75.053 14.6647 75.053 14.422C75.053 14.2227 75.014 14.0277 74.936 13.837C74.858 13.6463 74.741 13.473 74.585 13.317C74.4377 13.161 74.2557 13.0353 74.039 12.94C73.8223 12.8447 73.5753 12.797 73.298 12.797C72.908 12.797 72.57 12.888 72.284 13.07C72.0067 13.2433 71.7943 13.499 71.647 13.837C71.4997 14.1663 71.426 14.5607 71.426 15.02H70.321C70.321 14.37 70.438 13.8023 70.672 13.317C70.906 12.823 71.244 12.4417 71.686 12.173C72.1367 11.8957 72.674 11.757 73.298 11.757C73.8007 11.757 74.234 11.8437 74.598 12.017C74.962 12.1817 75.261 12.3983 75.495 12.667C75.729 12.927 75.9023 13.2087 76.015 13.512C76.1277 13.8153 76.184 14.1057 76.184 14.383C76.184 14.851 76.0713 15.3147 75.846 15.774C75.6207 16.2333 75.3303 16.645 74.975 17.009L72.076 19.96H76.223V21H69.801ZM78.5674 16.45C78.5674 16.9787 78.6194 17.4683 78.7234 17.919C78.8274 18.361 78.979 18.7467 79.1784 19.076C79.3777 19.3967 79.616 19.648 79.8934 19.83C80.1794 20.0033 80.4957 20.09 80.8424 20.09C81.1977 20.09 81.514 20.0033 81.7914 19.83C82.0687 19.648 82.307 19.3967 82.5064 19.076C82.7057 18.7467 82.8574 18.361 82.9614 17.919C83.0654 17.4683 83.1174 16.9787 83.1174 16.45C83.1174 15.9213 83.0654 15.436 82.9614 14.994C82.8574 14.5433 82.7057 14.1577 82.5064 13.837C82.307 13.5077 82.0687 13.2563 81.7914 13.083C81.514 12.901 81.1977 12.81 80.8424 12.81C80.4957 12.81 80.1794 12.901 79.8934 13.083C79.616 13.2563 79.3777 13.5077 79.1784 13.837C78.979 14.1577 78.8274 14.5433 78.7234 14.994C78.6194 15.436 78.5674 15.9213 78.5674 16.45ZM77.4624 16.45C77.4624 15.54 77.6054 14.734 77.8914 14.032C78.1774 13.33 78.5717 12.7797 79.0744 12.381C79.5857 11.9737 80.175 11.77 80.8424 11.77C81.5097 11.77 82.0947 11.9737 82.5974 12.381C83.1087 12.7797 83.5074 13.33 83.7934 14.032C84.0794 14.734 84.2224 15.54 84.2224 16.45C84.2224 17.36 84.0794 18.166 83.7934 18.868C83.5074 19.57 83.1087 20.1247 82.5974 20.532C82.0947 20.9307 81.5097 21.13 80.8424 21.13C80.175 21.13 79.5857 20.9307 79.0744 20.532C78.5717 20.1247 78.1774 19.57 77.8914 18.868C77.6054 18.166 77.4624 17.36 77.4624 16.45ZM86.3623 16.45C86.3623 16.9787 86.4143 17.4683 86.5183 17.919C86.6223 18.361 86.774 18.7467 86.9733 19.076C87.1726 19.3967 87.411 19.648 87.6883 19.83C87.9743 20.0033 88.2906 20.09 88.6373 20.09C88.9926 20.09 89.309 20.0033 89.5863 19.83C89.8636 19.648 90.102 19.3967 90.3013 19.076C90.5006 18.7467 90.6523 18.361 90.7563 17.919C90.8603 17.4683 90.9123 16.9787 90.9123 16.45C90.9123 15.9213 90.8603 15.436 90.7563 14.994C90.6523 14.5433 90.5006 14.1577 90.3013 13.837C90.102 13.5077 89.8636 13.2563 89.5863 13.083C89.309 12.901 88.9926 12.81 88.6373 12.81C88.2906 12.81 87.9743 12.901 87.6883 13.083C87.411 13.2563 87.1726 13.5077 86.9733 13.837C86.774 14.1577 86.6223 14.5433 86.5183 14.994C86.4143 15.436 86.3623 15.9213 86.3623 16.45ZM85.2573 16.45C85.2573 15.54 85.4003 14.734 85.6863 14.032C85.9723 13.33 86.3666 12.7797 86.8693 12.381C87.3806 11.9737 87.97 11.77 88.6373 11.77C89.3046 11.77 89.8896 11.9737 90.3923 12.381C90.9036 12.7797 91.3023 13.33 91.5883 14.032C91.8743 14.734 92.0173 15.54 92.0173 16.45C92.0173 17.36 91.8743 18.166 91.5883 18.868C91.3023 19.57 90.9036 20.1247 90.3923 20.532C89.8896 20.9307 89.3046 21.13 88.6373 21.13C87.97 21.13 87.3806 20.9307 86.8693 20.532C86.3666 20.1247 85.9723 19.57 85.6863 18.868C85.4003 18.166 85.2573 17.36 85.2573 16.45ZM93.7672 20.48C93.7672 20.2807 93.8366 20.1117 93.9752 19.973C94.1226 19.8343 94.2916 19.765 94.4822 19.765C94.6816 19.765 94.8506 19.8343 94.9892 19.973C95.1279 20.1117 95.1972 20.2807 95.1972 20.48C95.1972 20.6707 95.1279 20.8397 94.9892 20.987C94.8506 21.1257 94.6816 21.195 94.4822 21.195C94.2916 21.195 94.1226 21.1257 93.9752 20.987C93.8366 20.8397 93.7672 20.6707 93.7672 20.48ZM102.215 14.89C102.215 14.474 102.124 14.11 101.942 13.798C101.768 13.4773 101.526 13.226 101.214 13.044C100.91 12.862 100.564 12.771 100.174 12.771C99.7837 12.771 99.4327 12.862 99.1207 13.044C98.8174 13.226 98.5747 13.4773 98.3927 13.798C98.2194 14.11 98.1327 14.474 98.1327 14.89C98.1327 15.306 98.2194 15.6743 98.3927 15.995C98.5747 16.3157 98.8174 16.5713 99.1207 16.762C99.4327 16.944 99.7837 17.035 100.174 17.035C100.564 17.035 100.91 16.944 101.214 16.762C101.526 16.5713 101.768 16.3157 101.942 15.995C102.124 15.6743 102.215 15.306 102.215 14.89ZM99.6277 21H98.2367L101.084 17.243L101.162 17.308C100.988 17.5247 100.785 17.6677 100.551 17.737C100.325 17.8063 100.065 17.841 99.7707 17.841C99.398 17.841 99.047 17.7673 98.7177 17.62C98.397 17.4727 98.111 17.2647 97.8597 16.996C97.617 16.7273 97.4264 16.4153 97.2877 16.06C97.149 15.696 97.0797 15.306 97.0797 14.89C97.0797 14.266 97.214 13.72 97.4827 13.252C97.76 12.784 98.1327 12.42 98.6007 12.16C99.0687 11.9 99.593 11.77 100.174 11.77C100.763 11.77 101.287 11.9 101.747 12.16C102.215 12.42 102.583 12.784 102.852 13.252C103.129 13.72 103.268 14.266 103.268 14.89C103.268 15.2627 103.216 15.6093 103.112 15.93C103.008 16.2507 102.869 16.5323 102.696 16.775L99.6277 21ZM109.705 14.89C109.705 14.474 109.614 14.11 109.432 13.798C109.259 13.4773 109.016 13.226 108.704 13.044C108.401 12.862 108.054 12.771 107.664 12.771C107.274 12.771 106.923 12.862 106.611 13.044C106.308 13.226 106.065 13.4773 105.883 13.798C105.71 14.11 105.623 14.474 105.623 14.89C105.623 15.306 105.71 15.6743 105.883 15.995C106.065 16.3157 106.308 16.5713 106.611 16.762C106.923 16.944 107.274 17.035 107.664 17.035C108.054 17.035 108.401 16.944 108.704 16.762C109.016 16.5713 109.259 16.3157 109.432 15.995C109.614 15.6743 109.705 15.306 109.705 14.89ZM107.118 21H105.727L108.574 17.243L108.652 17.308C108.479 17.5247 108.275 17.6677 108.041 17.737C107.816 17.8063 107.556 17.841 107.261 17.841C106.888 17.841 106.537 17.7673 106.208 17.62C105.887 17.4727 105.601 17.2647 105.35 16.996C105.107 16.7273 104.917 16.4153 104.778 16.06C104.639 15.696 104.57 15.306 104.57 14.89C104.57 14.266 104.704 13.72 104.973 13.252C105.25 12.784 105.623 12.42 106.091 12.16C106.559 11.9 107.083 11.77 107.664 11.77C108.253 11.77 108.778 11.9 109.237 12.16C109.705 12.42 110.073 12.784 110.342 13.252C110.619 13.72 110.758 14.266 110.758 14.89C110.758 15.2627 110.706 15.6093 110.602 15.93C110.498 16.2507 110.359 16.5323 110.186 16.775L107.118 21ZM62.128 33.544V31.8H69.936V33.544H66.976V43H65.072V33.544H62.128ZM69.0128 39.32C69.0128 38.5627 69.1834 37.896 69.5247 37.32C69.8768 36.744 70.3514 36.296 70.9488 35.976C71.5461 35.6453 72.2234 35.48 72.9808 35.48C73.7381 35.48 74.4101 35.6453 74.9968 35.976C75.5941 36.296 76.0688 36.744 76.4208 37.32C76.7728 37.896 76.9488 38.5627 76.9488 39.32C76.9488 40.0667 76.7728 40.7333 76.4208 41.32C76.0688 41.896 75.5941 42.3493 74.9968 42.68C74.4101 43 73.7381 43.16 72.9808 43.16C72.2234 43.16 71.5461 43 70.9488 42.68C70.3514 42.3493 69.8768 41.896 69.5247 41.32C69.1834 40.7333 69.0128 40.0667 69.0128 39.32ZM70.7888 39.32C70.7888 39.7787 70.8848 40.184 71.0768 40.536C71.2688 40.8773 71.5301 41.1493 71.8608 41.352C72.1914 41.544 72.5648 41.64 72.9808 41.64C73.3861 41.64 73.7541 41.544 74.0848 41.352C74.4261 41.1493 74.6928 40.8773 74.8848 40.536C75.0768 40.184 75.1728 39.7787 75.1728 39.32C75.1728 38.8613 75.0768 38.456 74.8848 38.104C74.6928 37.752 74.4261 37.48 74.0848 37.288C73.7541 37.096 73.3861 37 72.9808 37C72.5648 37 72.1914 37.096 71.8608 37.288C71.5301 37.48 71.2688 37.752 71.0768 38.104C70.8848 38.456 70.7888 38.8613 70.7888 39.32ZM77.5644 35.64H81.7404V37.16H77.5644V35.64ZM78.7964 33.08H80.5084V43H78.7964V33.08ZM84.0201 40.712C84.0201 40.9573 84.0788 41.1707 84.1961 41.352C84.3135 41.5227 84.4735 41.6507 84.6761 41.736C84.8895 41.8213 85.1295 41.864 85.3961 41.864C85.7375 41.864 86.0468 41.7947 86.3241 41.656C86.6121 41.5173 86.8415 41.3147 87.0121 41.048C87.1935 40.7707 87.2841 40.4507 87.2841 40.088L87.5401 41.048C87.5401 41.5173 87.4015 41.912 87.1241 42.232C86.8575 42.5413 86.5161 42.776 86.1001 42.936C85.6948 43.0853 85.2788 43.16 84.8521 43.16C84.3935 43.16 83.9668 43.0693 83.5721 42.888C83.1775 42.7067 82.8628 42.44 82.6281 42.088C82.3935 41.736 82.2761 41.3093 82.2761 40.808C82.2761 40.0933 82.5268 39.528 83.0281 39.112C83.5295 38.6853 84.2388 38.472 85.1561 38.472C85.6468 38.472 86.0681 38.5253 86.4201 38.632C86.7828 38.7387 87.0815 38.8667 87.3161 39.016C87.5508 39.1547 87.7161 39.2827 87.8121 39.4V40.28C87.4815 40.0453 87.1295 39.8747 86.7561 39.768C86.3828 39.6613 85.9881 39.608 85.5721 39.608C85.2095 39.608 84.9161 39.656 84.6921 39.752C84.4681 39.8373 84.2975 39.96 84.1801 40.12C84.0735 40.28 84.0201 40.4773 84.0201 40.712ZM83.4761 37.56L82.7721 36.344C83.1028 36.1413 83.5295 35.944 84.0521 35.752C84.5855 35.56 85.1935 35.464 85.8761 35.464C86.4841 35.464 87.0175 35.5547 87.4761 35.736C87.9455 35.9173 88.3135 36.1787 88.5801 36.52C88.8468 36.8507 88.9801 37.2613 88.9801 37.752V43H87.2841V38.088C87.2841 37.8533 87.2415 37.6613 87.1561 37.512C87.0815 37.3627 86.9748 37.24 86.8361 37.144C86.6975 37.048 86.5321 36.9787 86.3401 36.936C86.1481 36.8933 85.9401 36.872 85.7161 36.872C85.3748 36.872 85.0495 36.9147 84.7401 37C84.4415 37.0747 84.1801 37.1707 83.9561 37.288C83.7428 37.3947 83.5828 37.4853 83.4761 37.56ZM90.9946 30.52H92.7226V43H90.9946V30.52Z" fill="white"/>
<rect opacity="0.05" x="0.70752" width="58.8228" height="60" rx="6" fill="white"/>
<g clip-path="url(#clip0_7_3825)">
<g filter="url(#filter0_d_7_3825)">
<path fill-rule="evenodd" clip-rule="evenodd" d="M23.0522 39C23.0522 37.8954 41.0749 37 63.3083 37C85.5416 37 103.564 37.8954 103.564 39C103.564 40.1046 85.5416 41 63.3083 41C41.0749 41 23.0522 40.1046 23.0522 39Z" fill="white"/>
<path fill-rule="evenodd" clip-rule="evenodd" d="M-339.25 19C-339.25 18.4477 -330.238 18 -319.122 18H-238.61C-229.016 18 -220.756 18.3364 -218.873 18.8037L-201.968 23H123.695C129.693 23 135.379 23.1329 139.204 23.3626C143.028 23.5922 144.59 23.8946 143.467 24.1873L111.234 32.5848C108.472 33.2754 100.91 33.8958 89.8698 34.3373C78.886 34.7766 65.1546 35.011 51.0609 35H-144.237C-158.331 35.011 -172.062 34.7766 -183.047 34.3373C-194.082 33.8959 -201.642 33.2759 -204.406 32.5857C-204.407 32.5854 -204.404 32.5859 -204.406 32.5857L-238.03 24.2392C-238.167 24.2116 -238.28 24.1835 -238.369 24.1551L-255.108 20H-319.122C-330.238 20 -339.25 19.5523 -339.25 19H-339.25ZM-193.911 25L-164.924 32.1952C-164.004 32.4254 -161.483 32.6322 -157.804 32.7793C-154.124 32.9265 -149.519 33.0047 -144.796 33.0002L-144.411 33H51.234L51.6205 33.0002C56.3426 33.0047 60.9478 32.9265 64.6272 32.7793C68.2906 32.6328 70.8046 32.4273 71.7345 32.1984L99.3662 25H-193.911Z" fill="white"/>
</g>
</g>
<ellipse cx="53.0598" cy="9" rx="8.82342" ry="9" fill="#F5C34B"/>
<path d="M50.5907 11.5996V10.7132L52.6618 8.79563C52.8379 8.62518 52.9856 8.47177 53.1049 8.3354C53.2261 8.19904 53.318 8.06552 53.3805 7.93484C53.443 7.80226 53.4743 7.65927 53.4743 7.50586C53.4743 7.3354 53.4354 7.18862 53.3578 7.06552C53.2801 6.94052 53.1741 6.84487 53.0396 6.77859C52.9051 6.7104 52.7527 6.67631 52.5822 6.67631C52.4042 6.67631 52.2489 6.7123 52.1163 6.78427C51.9837 6.85624 51.8815 6.95946 51.8095 7.09393C51.7375 7.2284 51.7015 7.38843 51.7015 7.57404H50.5339C50.5339 7.19336 50.6201 6.86287 50.7924 6.58256C50.9648 6.30226 51.2063 6.0854 51.5169 5.932C51.8275 5.77859 52.1854 5.70188 52.5907 5.70188C53.0074 5.70188 53.3701 5.77575 53.6788 5.92347C53.9894 6.06931 54.2309 6.27196 54.4032 6.53143C54.5756 6.7909 54.6618 7.08825 54.6618 7.42347C54.6618 7.64317 54.6182 7.86003 54.5311 8.07404C54.4458 8.28806 54.2934 8.52575 54.0737 8.78711C53.854 9.04658 53.5443 9.35813 53.1447 9.72177L52.2953 10.5542V10.5939H54.7385V11.5996H50.5907Z" fill="#0B1E40"/>
<defs>
<filter id="filter0_d_7_3825" x="-343.25" y="18" width="491.073" height="31" filterUnits="userSpaceOnUse" color-interpolation-filters="sRGB">
<feFlood flood-opacity="0" result="BackgroundImageFix"/>
<feColorMatrix in="SourceAlpha" type="matrix" values="0 0 0 0 0 0 0 0 0 0 0 0 0 0 0 0 0 0 127 0" result="hardAlpha"/>
<feOffset dy="4"/>
<feGaussianBlur stdDeviation="2"/>
<feComposite in2="hardAlpha" operator="out"/>
<feColorMatrix type="matrix" values="0 0 0 0 0 0 0 0 0 0 0 0 0 0 0 0 0 0 0.25 0"/>
<feBlend mode="normal" in2="BackgroundImageFix" result="effect1_dropShadow_7_3825"/>
<feBlend mode="normal" in="SourceGraphic" in2="effect1_dropShadow_7_3825" result="shape"/>
</filter>
<clipPath id="clip0_7_3825">
<rect width="23.5291" height="24" fill="white" transform="translate(18.355 18)"/>
</clipPath>
</defs>
</svg>
