<svg width="47" height="55" viewBox="0 0 47 55" fill="none" xmlns="http://www.w3.org/2000/svg">
<path fill-rule="evenodd" clip-rule="evenodd" d="M14.7309 36.4724H26.0145C27.2921 30.6338 32.6231 30.6899 33.8883 36.4724H34.8312V28.0565C34.8312 27.008 34.2776 26.1487 33.6024 26.1487C30.8312 26.1487 28.0599 26.1487 25.2887 26.1487C24.6897 26.1487 24.2042 25.3951 24.2042 24.4657V14.3664H5.62509V16.3859H7.61889C9.04642 16.3859 9.04642 19.7524 7.61889 19.7524H5.62509V23.0067H10.8302C12.258 23.0067 12.258 26.3731 10.8302 26.3731H5.62509V36.472H6.85727C8.13463 30.6334 13.4659 30.6903 14.7309 36.4724V36.4724ZM3.45627 19.7524H2.1552C0.727386 19.7524 0.727386 16.3859 2.1552 16.3859H3.45627V12.683C3.45627 11.7536 3.9418 11 4.54082 11C6.20039 11 24.4393 11.011 24.4393 11C27.4079 11 29.9936 13.2811 31.5151 17.2443L33.6413 22.7827C35.4968 22.8152 37 25.1712 37 28.0561V38.1554C37 39.0847 36.5145 39.8384 35.9157 39.8384H34.0252C33.6365 42.8092 31.9454 45 29.9515 45C27.9577 45 26.2666 42.8092 25.8778 39.8384H14.8678C14.4791 42.8092 12.7879 45 10.7941 45C8.80026 45 7.10907 42.8092 6.72036 39.8384H4.54082C3.9418 39.8384 3.45627 39.0847 3.45627 38.1554V33.1055H1.07065C-0.356883 33.1055 -0.356883 29.7395 1.07065 29.7395H3.45627V26.3731H1.07065C-0.356883 26.3731 -0.356883 23.0067 1.07065 23.0067H3.45627V19.7524ZM31.3573 36.3659C32.1336 37.5709 32.1336 39.5251 31.3573 40.7301C30.1085 42.6685 27.9634 41.2896 27.9634 38.548C27.9634 35.8064 30.1085 34.4275 31.3573 36.3659V36.3659ZM31.1245 22.7823H26.373V14.8226C27.7565 15.5109 28.8879 16.956 29.6597 18.9668L31.1245 22.7823ZM12.1999 36.3659C12.9762 37.5709 12.9762 39.5251 12.1999 40.7301C10.951 42.6685 8.80591 41.2896 8.80591 38.548C8.80619 35.8064 10.951 34.4275 12.1999 36.3659V36.3659Z" fill="#041E42"/>
</svg>
