<svg width="39" height="25" viewBox="0 0 39 25" fill="none" xmlns="http://www.w3.org/2000/svg">
<g clip-path="url(#clip0_1_764)">
<path d="M35.2237 0.526367H3.91158C2.24813 0.526367 0.976074 1.82637 0.976074 3.52637V21.5264C0.976074 23.2264 2.34598 24.5264 3.91158 24.5264H35.2237C36.8871 24.5264 38.1592 23.2264 38.1592 21.5264V3.52637C38.1592 1.82637 36.7893 0.526367 35.2237 0.526367Z" fill="#F3F5F6"/>
<path d="M35.2237 1.52637C36.3 1.52637 37.1807 2.42637 37.1807 3.52637V21.5264C37.1807 22.6264 36.3 23.5264 35.2237 23.5264H3.91159C2.83524 23.5264 1.95459 22.6264 1.95459 21.5264V3.52637C1.95459 2.42637 2.83524 1.52637 3.91159 1.52637H35.2237Z" fill="white"/>
<path d="M28.6678 10.6264H28.3742C27.9828 11.6264 27.6893 12.1264 27.3957 13.6264H29.2549C28.9613 12.1264 28.9613 11.4264 28.6678 10.6264ZM31.5054 16.5264H29.842C29.7441 16.5264 29.7441 16.5264 29.6463 16.4264L29.4506 15.5264L29.3527 15.3264H27.0043C26.9065 15.3264 26.8086 15.3264 26.8086 15.5264L26.5151 16.4264C26.5151 16.5264 26.4172 16.5264 26.4172 16.5264H24.3624L24.5581 16.0264L27.3957 9.22637C27.3957 8.72637 27.6893 8.52637 28.1785 8.52637H29.6463C29.7441 8.52637 29.842 8.52637 29.842 8.72637L31.2119 15.2264C31.3097 15.6264 31.4076 15.9264 31.4076 16.3264C31.5054 16.4264 31.5054 16.4264 31.5054 16.5264ZM18.3935 16.2264L18.7849 14.4264C18.8827 14.4264 18.9806 14.5264 18.9806 14.5264C19.6655 14.8264 20.3505 15.0264 21.0354 14.9264C21.2311 14.9264 21.5247 14.8264 21.7204 14.7264C22.2096 14.5264 22.2096 14.0264 21.8182 13.6264C21.6225 13.4264 21.329 13.3264 21.0354 13.1264C20.644 12.9264 20.2526 12.7264 19.9591 12.4264C18.7849 11.4264 19.1763 10.0264 19.8612 9.32637C20.4483 8.92637 20.7419 8.52637 21.5247 8.52637C22.6989 8.52637 23.971 8.52637 24.5581 8.72637H24.6559C24.5581 9.32637 24.4602 9.82637 24.2645 10.4264C23.7752 10.2264 23.286 10.0264 22.7967 10.0264C22.5032 10.0264 22.2096 10.0264 21.9161 10.1264C21.7204 10.1264 21.6225 10.2264 21.5247 10.3264C21.329 10.5264 21.329 10.8264 21.5247 11.0264L22.0139 11.4264C22.4053 11.6264 22.7967 11.8264 23.0903 12.0264C23.5795 12.3264 24.0688 12.8264 24.1667 13.4264C24.3624 14.3264 24.0688 15.1264 23.286 15.7264C22.7967 16.1264 22.601 16.3264 21.9161 16.3264C20.5462 16.3264 19.4698 16.4264 18.5892 16.1264C18.4913 16.3264 18.4913 16.3264 18.3935 16.2264ZM14.9687 16.5264C15.0666 15.8264 15.0666 15.8264 15.1644 15.5264C15.6537 13.3264 16.1429 11.0264 16.5343 8.82637C16.6322 8.62637 16.6322 8.52637 16.8279 8.52637H18.5892C18.3935 9.72637 18.1978 10.6264 17.9042 11.7264C17.6107 13.2264 17.3171 14.7264 16.9257 16.2264C16.9257 16.4264 16.8279 16.4264 16.6322 16.4264L14.9687 16.5264ZM5.86865 8.72637C5.86865 8.62637 6.06435 8.52637 6.1622 8.52637H9.48911C9.97836 8.52637 10.3698 8.82637 10.4676 9.32637L11.3483 13.7264C11.3483 13.8264 11.3483 13.8264 11.4461 13.9264C11.4461 13.8264 11.544 13.8264 11.544 13.8264L13.5988 8.72637C13.501 8.62637 13.5988 8.52637 13.6967 8.52637H15.7515C15.7515 8.62637 15.7515 8.62637 15.6537 8.72637L12.6203 16.0264C12.5225 16.2264 12.5225 16.3264 12.4246 16.4264C12.3268 16.5264 12.1311 16.4264 11.9354 16.4264H10.4676C10.3698 16.4264 10.2719 16.4264 10.2719 16.2264L8.70631 10.0264C8.51061 9.82637 8.21706 9.52637 7.82566 9.42637C7.23856 9.12637 6.1622 8.92637 5.9665 8.92637L5.86865 8.72637Z" fill="#142688"/>
</g>
<defs>
<clipPath id="clip0_1_764">
<rect width="37.1831" height="24" fill="white" transform="translate(0.976074 0.526367)"/>
</clipPath>
</defs>
</svg>
